G75*
%MOIN*%
%OFA0B0*%
%FSLAX25Y25*%
%IPPOS*%
%LPD*%
%AMOC8*
5,1,8,0,0,1.08239X$1,22.5*
%
%ADD10C,0.05600*%
%ADD11R,0.07400X0.07400*%
%ADD12C,0.07400*%
%ADD13C,0.08000*%
%ADD14C,0.03200*%
D10*
X0160379Y0014100D02*
X0160379Y0016900D01*
X0170379Y0016900D02*
X0170379Y0014100D01*
X0180379Y0014100D02*
X0180379Y0016900D01*
X0190379Y0016900D02*
X0190379Y0014100D01*
X0200379Y0014100D02*
X0200379Y0016900D01*
X0210379Y0016900D02*
X0210379Y0014100D01*
X0220379Y0014100D02*
X0220379Y0016900D01*
X0230379Y0016900D02*
X0230379Y0014100D01*
X0250379Y0014100D02*
X0250379Y0016900D01*
X0260379Y0016900D02*
X0260379Y0014100D01*
X0270379Y0014100D02*
X0270379Y0016900D01*
X0280379Y0016900D02*
X0280379Y0014100D01*
X0290379Y0014100D02*
X0290379Y0016900D01*
X0300379Y0016900D02*
X0300379Y0014100D01*
X0300379Y0204100D02*
X0300379Y0206900D01*
X0290379Y0206900D02*
X0290379Y0204100D01*
X0280379Y0204100D02*
X0280379Y0206900D01*
X0270379Y0206900D02*
X0270379Y0204100D01*
X0260379Y0204100D02*
X0260379Y0206900D01*
X0250379Y0206900D02*
X0250379Y0204100D01*
X0240379Y0204100D02*
X0240379Y0206900D01*
X0230379Y0206900D02*
X0230379Y0204100D01*
X0214379Y0204100D02*
X0214379Y0206900D01*
X0204379Y0206900D02*
X0204379Y0204100D01*
X0194379Y0204100D02*
X0194379Y0206900D01*
X0184379Y0206900D02*
X0184379Y0204100D01*
X0174379Y0204100D02*
X0174379Y0206900D01*
X0164379Y0206900D02*
X0164379Y0204100D01*
X0154379Y0204100D02*
X0154379Y0206900D01*
X0144379Y0206900D02*
X0144379Y0204100D01*
X0134379Y0204100D02*
X0134379Y0206900D01*
X0124379Y0206900D02*
X0124379Y0204100D01*
D11*
X0282879Y0135000D03*
D12*
X0272879Y0135000D03*
X0262879Y0135000D03*
X0252879Y0135000D03*
X0235379Y0155500D03*
X0214379Y0135000D03*
X0204379Y0135000D03*
X0194379Y0135000D03*
X0184379Y0135000D03*
X0174379Y0135000D03*
X0164379Y0135000D03*
X0154379Y0135000D03*
X0144379Y0135000D03*
X0134379Y0134000D03*
X0124379Y0134000D03*
X0114379Y0134000D03*
X0104379Y0134000D03*
X0094379Y0134000D03*
X0084379Y0134000D03*
X0074379Y0134000D03*
X0064379Y0134000D03*
X0285379Y0155500D03*
D13*
X0244379Y0102000D03*
X0214379Y0102000D03*
X0173879Y0113000D03*
X0143879Y0113000D03*
X0140379Y0150500D03*
X0170379Y0150500D03*
D14*
X0165379Y0145500D01*
X0165379Y0136000D01*
X0164379Y0135000D01*
X0164379Y0069500D01*
X0189879Y0044000D01*
X0189879Y0016000D01*
X0190379Y0015500D01*
X0200379Y0015500D02*
X0200379Y0037500D01*
X0203879Y0041000D01*
X0223379Y0041000D01*
X0230379Y0048000D01*
X0230379Y0065500D01*
X0225379Y0070500D01*
X0230379Y0075500D01*
X0230379Y0108000D01*
X0227879Y0110500D01*
X0227879Y0131000D01*
X0231379Y0134500D01*
X0225379Y0140500D01*
X0225379Y0150500D01*
X0230379Y0155500D01*
X0235379Y0155500D01*
X0260379Y0160500D02*
X0265379Y0155500D01*
X0262879Y0153000D01*
X0262879Y0135000D01*
X0252879Y0135000D02*
X0231879Y0135000D01*
X0231379Y0134500D01*
X0214379Y0135000D02*
X0214379Y0102000D01*
X0227879Y0108500D02*
X0227879Y0110500D01*
X0244379Y0102000D02*
X0263879Y0102000D01*
X0275379Y0090500D01*
X0275379Y0040500D01*
X0265379Y0030500D01*
X0215379Y0030500D01*
X0210379Y0025500D01*
X0210379Y0015500D01*
X0225379Y0070500D02*
X0180379Y0070500D01*
X0174379Y0076500D01*
X0174379Y0112500D01*
X0155379Y0120500D02*
X0155379Y0100500D01*
X0150379Y0095500D01*
X0065379Y0095500D01*
X0055379Y0105500D01*
X0055379Y0150500D01*
X0060379Y0155500D01*
X0080379Y0155500D01*
X0085379Y0150500D01*
X0085379Y0135000D01*
X0084379Y0134000D01*
X0092379Y0136000D02*
X0094379Y0134000D01*
X0092379Y0136000D02*
X0092379Y0185500D01*
X0096879Y0190000D01*
X0153879Y0190000D01*
X0164379Y0200500D01*
X0164379Y0205500D01*
X0174379Y0205500D02*
X0174379Y0200000D01*
X0157879Y0183500D01*
X0104879Y0183500D01*
X0099879Y0178500D01*
X0099879Y0138500D01*
X0104379Y0134000D01*
X0106879Y0141500D02*
X0114379Y0134000D01*
X0114879Y0143500D02*
X0124379Y0134000D01*
X0134379Y0134000D02*
X0134379Y0126500D01*
X0140379Y0120500D01*
X0140379Y0116500D01*
X0143879Y0113000D01*
X0154379Y0121500D02*
X0155379Y0120500D01*
X0154379Y0121500D02*
X0154379Y0135000D01*
X0145379Y0135500D02*
X0144879Y0135000D01*
X0144379Y0135000D01*
X0145379Y0136000D01*
X0145379Y0145500D01*
X0142879Y0148000D01*
X0155379Y0160500D01*
X0165379Y0160500D01*
X0204379Y0199500D01*
X0204379Y0205500D01*
X0194379Y0205500D02*
X0194379Y0200000D01*
X0163879Y0169500D01*
X0118879Y0169500D01*
X0114879Y0165500D01*
X0114879Y0143500D01*
X0106879Y0141500D02*
X0106879Y0172500D01*
X0111379Y0177000D01*
X0161379Y0177000D01*
X0184379Y0200000D01*
X0184379Y0205500D01*
X0154379Y0205500D02*
X0154379Y0199500D01*
X0150379Y0195500D01*
X0090379Y0195500D01*
X0085379Y0190500D01*
X0085379Y0160500D01*
X0080379Y0155500D01*
X0074379Y0134000D02*
X0074379Y0125500D01*
X0076879Y0123000D01*
X0130879Y0123000D01*
X0134379Y0126500D01*
X0142879Y0148000D02*
X0140379Y0150500D01*
X0175379Y0145500D02*
X0175379Y0140500D01*
X0174379Y0139500D01*
X0174379Y0135000D01*
X0184379Y0135000D02*
X0184379Y0144000D01*
X0230379Y0190000D01*
X0230379Y0205500D01*
X0240379Y0205500D02*
X0240379Y0188000D01*
X0194879Y0142500D01*
X0194879Y0135500D01*
X0194379Y0135000D01*
X0204379Y0135000D02*
X0204879Y0135500D01*
X0204879Y0140500D01*
X0250379Y0186000D01*
X0250379Y0205500D01*
X0260379Y0205500D02*
X0260379Y0160500D01*
X0265379Y0155500D02*
X0285379Y0155500D01*
X0282879Y0135000D02*
X0285379Y0132500D01*
X0285379Y0120500D01*
X0266879Y0102000D01*
X0244379Y0102000D01*
X0175379Y0145500D02*
X0215379Y0185500D01*
X0215379Y0204500D01*
X0214379Y0205500D01*
M02*
