%
M48
M72
T01C0.03346
T02C0.03543
T03C0.04000
T04C0.12598
%
T01
X160379Y15500
X170379Y15500
X180379Y15500
X190379Y15500
X200379Y15500
X210379Y15500
X220379Y15500
X230379Y15500
X250379Y15500
X260379Y15500
X270379Y15500
X280379Y15500
X290379Y15500
X300379Y15500
X300379Y205500
X290379Y205500
X280379Y205500
X270379Y205500
X260379Y205500
X250379Y205500
X240379Y205500
X230379Y205500
X214379Y205500
X204379Y205500
X194379Y205500
X184379Y205500
X174379Y205500
X164379Y205500
X154379Y205500
X144379Y205500
X134379Y205500
X124379Y205500
T02
X235379Y155500
X285379Y155500
T03
X282879Y135000
X272879Y135000
X262879Y135000
X252879Y135000
X214379Y135000
X204379Y135000
X194379Y135000
X184379Y135000
X174379Y135000
X164379Y135000
X154379Y135000
X144379Y135000
X134379Y134000
X124379Y134000
X114379Y134000
X104379Y134000
X94379Y134000
X84379Y134000
X74379Y134000
X64379Y134000
X140379Y150500
X170379Y150500
X173879Y113000
X143879Y113000
X214379Y102000
X244379Y102000
T04
X105379Y15500
X310379Y35500
X310379Y145500
X110379Y205500
M30
