G75*
%MOIN*%
%OFA0B0*%
%FSLAX25Y25*%
%IPPOS*%
%LPD*%
%AMOC8*
5,1,8,0,0,1.08239X$1,22.5*
%
%ADD10C,0.01000*%
%ADD11C,0.00000*%
%ADD12C,0.05600*%
%ADD13R,0.07400X0.07400*%
%ADD14C,0.07400*%
%ADD15C,0.08000*%
D10*
X0050379Y0009437D02*
X0050379Y0211563D01*
X0050381Y0211687D01*
X0050387Y0211810D01*
X0050396Y0211934D01*
X0050410Y0212056D01*
X0050427Y0212179D01*
X0050449Y0212301D01*
X0050474Y0212422D01*
X0050503Y0212542D01*
X0050535Y0212661D01*
X0050572Y0212780D01*
X0050612Y0212897D01*
X0050655Y0213012D01*
X0050703Y0213127D01*
X0050754Y0213239D01*
X0050808Y0213350D01*
X0050866Y0213460D01*
X0050927Y0213567D01*
X0050992Y0213673D01*
X0051060Y0213776D01*
X0051131Y0213877D01*
X0051205Y0213976D01*
X0051282Y0214073D01*
X0051363Y0214167D01*
X0051446Y0214258D01*
X0051532Y0214347D01*
X0051621Y0214433D01*
X0051712Y0214516D01*
X0051806Y0214597D01*
X0051903Y0214674D01*
X0052002Y0214748D01*
X0052103Y0214819D01*
X0052206Y0214887D01*
X0052312Y0214952D01*
X0052419Y0215013D01*
X0052529Y0215071D01*
X0052640Y0215125D01*
X0052752Y0215176D01*
X0052867Y0215224D01*
X0052982Y0215267D01*
X0053099Y0215307D01*
X0053218Y0215344D01*
X0053337Y0215376D01*
X0053457Y0215405D01*
X0053578Y0215430D01*
X0053700Y0215452D01*
X0053823Y0215469D01*
X0053945Y0215483D01*
X0054069Y0215492D01*
X0054192Y0215498D01*
X0054316Y0215500D01*
X0304379Y0215500D01*
X0310379Y0209500D01*
X0310379Y0164500D01*
X0320379Y0154500D01*
X0320379Y0025500D01*
X0310379Y0015500D01*
X0310379Y0009437D01*
X0310377Y0009313D01*
X0310371Y0009190D01*
X0310362Y0009066D01*
X0310348Y0008944D01*
X0310331Y0008821D01*
X0310309Y0008699D01*
X0310284Y0008578D01*
X0310255Y0008458D01*
X0310223Y0008339D01*
X0310186Y0008220D01*
X0310146Y0008103D01*
X0310103Y0007988D01*
X0310055Y0007873D01*
X0310004Y0007761D01*
X0309950Y0007650D01*
X0309892Y0007540D01*
X0309831Y0007433D01*
X0309766Y0007327D01*
X0309698Y0007224D01*
X0309627Y0007123D01*
X0309553Y0007024D01*
X0309476Y0006927D01*
X0309395Y0006833D01*
X0309312Y0006742D01*
X0309226Y0006653D01*
X0309137Y0006567D01*
X0309046Y0006484D01*
X0308952Y0006403D01*
X0308855Y0006326D01*
X0308756Y0006252D01*
X0308655Y0006181D01*
X0308552Y0006113D01*
X0308446Y0006048D01*
X0308339Y0005987D01*
X0308229Y0005929D01*
X0308118Y0005875D01*
X0308006Y0005824D01*
X0307891Y0005776D01*
X0307776Y0005733D01*
X0307659Y0005693D01*
X0307540Y0005656D01*
X0307421Y0005624D01*
X0307301Y0005595D01*
X0307180Y0005570D01*
X0307058Y0005548D01*
X0306935Y0005531D01*
X0306813Y0005517D01*
X0306689Y0005508D01*
X0306566Y0005502D01*
X0306442Y0005500D01*
X0054316Y0005500D01*
X0054192Y0005502D01*
X0054069Y0005508D01*
X0053945Y0005517D01*
X0053823Y0005531D01*
X0053700Y0005548D01*
X0053578Y0005570D01*
X0053457Y0005595D01*
X0053337Y0005624D01*
X0053218Y0005656D01*
X0053099Y0005693D01*
X0052982Y0005733D01*
X0052867Y0005776D01*
X0052752Y0005824D01*
X0052640Y0005875D01*
X0052529Y0005929D01*
X0052419Y0005987D01*
X0052312Y0006048D01*
X0052206Y0006113D01*
X0052103Y0006181D01*
X0052002Y0006252D01*
X0051903Y0006326D01*
X0051806Y0006403D01*
X0051712Y0006484D01*
X0051621Y0006567D01*
X0051532Y0006653D01*
X0051446Y0006742D01*
X0051363Y0006833D01*
X0051282Y0006927D01*
X0051205Y0007024D01*
X0051131Y0007123D01*
X0051060Y0007224D01*
X0050992Y0007327D01*
X0050927Y0007433D01*
X0050866Y0007540D01*
X0050808Y0007650D01*
X0050754Y0007761D01*
X0050703Y0007873D01*
X0050655Y0007988D01*
X0050612Y0008103D01*
X0050572Y0008220D01*
X0050535Y0008339D01*
X0050503Y0008458D01*
X0050474Y0008578D01*
X0050449Y0008699D01*
X0050427Y0008821D01*
X0050410Y0008944D01*
X0050396Y0009066D01*
X0050387Y0009190D01*
X0050381Y0009313D01*
X0050379Y0009437D01*
D11*
X0099080Y0015500D02*
X0099082Y0015658D01*
X0099088Y0015816D01*
X0099098Y0015974D01*
X0099112Y0016132D01*
X0099130Y0016289D01*
X0099151Y0016446D01*
X0099177Y0016602D01*
X0099207Y0016758D01*
X0099240Y0016913D01*
X0099278Y0017066D01*
X0099319Y0017219D01*
X0099364Y0017371D01*
X0099413Y0017522D01*
X0099466Y0017671D01*
X0099522Y0017819D01*
X0099582Y0017965D01*
X0099646Y0018110D01*
X0099714Y0018253D01*
X0099785Y0018395D01*
X0099859Y0018535D01*
X0099937Y0018672D01*
X0100019Y0018808D01*
X0100103Y0018942D01*
X0100192Y0019073D01*
X0100283Y0019202D01*
X0100378Y0019329D01*
X0100475Y0019454D01*
X0100576Y0019576D01*
X0100680Y0019695D01*
X0100787Y0019812D01*
X0100897Y0019926D01*
X0101010Y0020037D01*
X0101125Y0020146D01*
X0101243Y0020251D01*
X0101364Y0020353D01*
X0101487Y0020453D01*
X0101613Y0020549D01*
X0101741Y0020642D01*
X0101871Y0020732D01*
X0102004Y0020818D01*
X0102139Y0020902D01*
X0102275Y0020981D01*
X0102414Y0021058D01*
X0102555Y0021130D01*
X0102697Y0021200D01*
X0102841Y0021265D01*
X0102987Y0021327D01*
X0103134Y0021385D01*
X0103283Y0021440D01*
X0103433Y0021491D01*
X0103584Y0021538D01*
X0103736Y0021581D01*
X0103889Y0021620D01*
X0104044Y0021656D01*
X0104199Y0021687D01*
X0104355Y0021715D01*
X0104511Y0021739D01*
X0104668Y0021759D01*
X0104826Y0021775D01*
X0104983Y0021787D01*
X0105142Y0021795D01*
X0105300Y0021799D01*
X0105458Y0021799D01*
X0105616Y0021795D01*
X0105775Y0021787D01*
X0105932Y0021775D01*
X0106090Y0021759D01*
X0106247Y0021739D01*
X0106403Y0021715D01*
X0106559Y0021687D01*
X0106714Y0021656D01*
X0106869Y0021620D01*
X0107022Y0021581D01*
X0107174Y0021538D01*
X0107325Y0021491D01*
X0107475Y0021440D01*
X0107624Y0021385D01*
X0107771Y0021327D01*
X0107917Y0021265D01*
X0108061Y0021200D01*
X0108203Y0021130D01*
X0108344Y0021058D01*
X0108483Y0020981D01*
X0108619Y0020902D01*
X0108754Y0020818D01*
X0108887Y0020732D01*
X0109017Y0020642D01*
X0109145Y0020549D01*
X0109271Y0020453D01*
X0109394Y0020353D01*
X0109515Y0020251D01*
X0109633Y0020146D01*
X0109748Y0020037D01*
X0109861Y0019926D01*
X0109971Y0019812D01*
X0110078Y0019695D01*
X0110182Y0019576D01*
X0110283Y0019454D01*
X0110380Y0019329D01*
X0110475Y0019202D01*
X0110566Y0019073D01*
X0110655Y0018942D01*
X0110739Y0018808D01*
X0110821Y0018672D01*
X0110899Y0018535D01*
X0110973Y0018395D01*
X0111044Y0018253D01*
X0111112Y0018110D01*
X0111176Y0017965D01*
X0111236Y0017819D01*
X0111292Y0017671D01*
X0111345Y0017522D01*
X0111394Y0017371D01*
X0111439Y0017219D01*
X0111480Y0017066D01*
X0111518Y0016913D01*
X0111551Y0016758D01*
X0111581Y0016602D01*
X0111607Y0016446D01*
X0111628Y0016289D01*
X0111646Y0016132D01*
X0111660Y0015974D01*
X0111670Y0015816D01*
X0111676Y0015658D01*
X0111678Y0015500D01*
X0111676Y0015342D01*
X0111670Y0015184D01*
X0111660Y0015026D01*
X0111646Y0014868D01*
X0111628Y0014711D01*
X0111607Y0014554D01*
X0111581Y0014398D01*
X0111551Y0014242D01*
X0111518Y0014087D01*
X0111480Y0013934D01*
X0111439Y0013781D01*
X0111394Y0013629D01*
X0111345Y0013478D01*
X0111292Y0013329D01*
X0111236Y0013181D01*
X0111176Y0013035D01*
X0111112Y0012890D01*
X0111044Y0012747D01*
X0110973Y0012605D01*
X0110899Y0012465D01*
X0110821Y0012328D01*
X0110739Y0012192D01*
X0110655Y0012058D01*
X0110566Y0011927D01*
X0110475Y0011798D01*
X0110380Y0011671D01*
X0110283Y0011546D01*
X0110182Y0011424D01*
X0110078Y0011305D01*
X0109971Y0011188D01*
X0109861Y0011074D01*
X0109748Y0010963D01*
X0109633Y0010854D01*
X0109515Y0010749D01*
X0109394Y0010647D01*
X0109271Y0010547D01*
X0109145Y0010451D01*
X0109017Y0010358D01*
X0108887Y0010268D01*
X0108754Y0010182D01*
X0108619Y0010098D01*
X0108483Y0010019D01*
X0108344Y0009942D01*
X0108203Y0009870D01*
X0108061Y0009800D01*
X0107917Y0009735D01*
X0107771Y0009673D01*
X0107624Y0009615D01*
X0107475Y0009560D01*
X0107325Y0009509D01*
X0107174Y0009462D01*
X0107022Y0009419D01*
X0106869Y0009380D01*
X0106714Y0009344D01*
X0106559Y0009313D01*
X0106403Y0009285D01*
X0106247Y0009261D01*
X0106090Y0009241D01*
X0105932Y0009225D01*
X0105775Y0009213D01*
X0105616Y0009205D01*
X0105458Y0009201D01*
X0105300Y0009201D01*
X0105142Y0009205D01*
X0104983Y0009213D01*
X0104826Y0009225D01*
X0104668Y0009241D01*
X0104511Y0009261D01*
X0104355Y0009285D01*
X0104199Y0009313D01*
X0104044Y0009344D01*
X0103889Y0009380D01*
X0103736Y0009419D01*
X0103584Y0009462D01*
X0103433Y0009509D01*
X0103283Y0009560D01*
X0103134Y0009615D01*
X0102987Y0009673D01*
X0102841Y0009735D01*
X0102697Y0009800D01*
X0102555Y0009870D01*
X0102414Y0009942D01*
X0102275Y0010019D01*
X0102139Y0010098D01*
X0102004Y0010182D01*
X0101871Y0010268D01*
X0101741Y0010358D01*
X0101613Y0010451D01*
X0101487Y0010547D01*
X0101364Y0010647D01*
X0101243Y0010749D01*
X0101125Y0010854D01*
X0101010Y0010963D01*
X0100897Y0011074D01*
X0100787Y0011188D01*
X0100680Y0011305D01*
X0100576Y0011424D01*
X0100475Y0011546D01*
X0100378Y0011671D01*
X0100283Y0011798D01*
X0100192Y0011927D01*
X0100103Y0012058D01*
X0100019Y0012192D01*
X0099937Y0012328D01*
X0099859Y0012465D01*
X0099785Y0012605D01*
X0099714Y0012747D01*
X0099646Y0012890D01*
X0099582Y0013035D01*
X0099522Y0013181D01*
X0099466Y0013329D01*
X0099413Y0013478D01*
X0099364Y0013629D01*
X0099319Y0013781D01*
X0099278Y0013934D01*
X0099240Y0014087D01*
X0099207Y0014242D01*
X0099177Y0014398D01*
X0099151Y0014554D01*
X0099130Y0014711D01*
X0099112Y0014868D01*
X0099098Y0015026D01*
X0099088Y0015184D01*
X0099082Y0015342D01*
X0099080Y0015500D01*
X0304080Y0035500D02*
X0304082Y0035658D01*
X0304088Y0035816D01*
X0304098Y0035974D01*
X0304112Y0036132D01*
X0304130Y0036289D01*
X0304151Y0036446D01*
X0304177Y0036602D01*
X0304207Y0036758D01*
X0304240Y0036913D01*
X0304278Y0037066D01*
X0304319Y0037219D01*
X0304364Y0037371D01*
X0304413Y0037522D01*
X0304466Y0037671D01*
X0304522Y0037819D01*
X0304582Y0037965D01*
X0304646Y0038110D01*
X0304714Y0038253D01*
X0304785Y0038395D01*
X0304859Y0038535D01*
X0304937Y0038672D01*
X0305019Y0038808D01*
X0305103Y0038942D01*
X0305192Y0039073D01*
X0305283Y0039202D01*
X0305378Y0039329D01*
X0305475Y0039454D01*
X0305576Y0039576D01*
X0305680Y0039695D01*
X0305787Y0039812D01*
X0305897Y0039926D01*
X0306010Y0040037D01*
X0306125Y0040146D01*
X0306243Y0040251D01*
X0306364Y0040353D01*
X0306487Y0040453D01*
X0306613Y0040549D01*
X0306741Y0040642D01*
X0306871Y0040732D01*
X0307004Y0040818D01*
X0307139Y0040902D01*
X0307275Y0040981D01*
X0307414Y0041058D01*
X0307555Y0041130D01*
X0307697Y0041200D01*
X0307841Y0041265D01*
X0307987Y0041327D01*
X0308134Y0041385D01*
X0308283Y0041440D01*
X0308433Y0041491D01*
X0308584Y0041538D01*
X0308736Y0041581D01*
X0308889Y0041620D01*
X0309044Y0041656D01*
X0309199Y0041687D01*
X0309355Y0041715D01*
X0309511Y0041739D01*
X0309668Y0041759D01*
X0309826Y0041775D01*
X0309983Y0041787D01*
X0310142Y0041795D01*
X0310300Y0041799D01*
X0310458Y0041799D01*
X0310616Y0041795D01*
X0310775Y0041787D01*
X0310932Y0041775D01*
X0311090Y0041759D01*
X0311247Y0041739D01*
X0311403Y0041715D01*
X0311559Y0041687D01*
X0311714Y0041656D01*
X0311869Y0041620D01*
X0312022Y0041581D01*
X0312174Y0041538D01*
X0312325Y0041491D01*
X0312475Y0041440D01*
X0312624Y0041385D01*
X0312771Y0041327D01*
X0312917Y0041265D01*
X0313061Y0041200D01*
X0313203Y0041130D01*
X0313344Y0041058D01*
X0313483Y0040981D01*
X0313619Y0040902D01*
X0313754Y0040818D01*
X0313887Y0040732D01*
X0314017Y0040642D01*
X0314145Y0040549D01*
X0314271Y0040453D01*
X0314394Y0040353D01*
X0314515Y0040251D01*
X0314633Y0040146D01*
X0314748Y0040037D01*
X0314861Y0039926D01*
X0314971Y0039812D01*
X0315078Y0039695D01*
X0315182Y0039576D01*
X0315283Y0039454D01*
X0315380Y0039329D01*
X0315475Y0039202D01*
X0315566Y0039073D01*
X0315655Y0038942D01*
X0315739Y0038808D01*
X0315821Y0038672D01*
X0315899Y0038535D01*
X0315973Y0038395D01*
X0316044Y0038253D01*
X0316112Y0038110D01*
X0316176Y0037965D01*
X0316236Y0037819D01*
X0316292Y0037671D01*
X0316345Y0037522D01*
X0316394Y0037371D01*
X0316439Y0037219D01*
X0316480Y0037066D01*
X0316518Y0036913D01*
X0316551Y0036758D01*
X0316581Y0036602D01*
X0316607Y0036446D01*
X0316628Y0036289D01*
X0316646Y0036132D01*
X0316660Y0035974D01*
X0316670Y0035816D01*
X0316676Y0035658D01*
X0316678Y0035500D01*
X0316676Y0035342D01*
X0316670Y0035184D01*
X0316660Y0035026D01*
X0316646Y0034868D01*
X0316628Y0034711D01*
X0316607Y0034554D01*
X0316581Y0034398D01*
X0316551Y0034242D01*
X0316518Y0034087D01*
X0316480Y0033934D01*
X0316439Y0033781D01*
X0316394Y0033629D01*
X0316345Y0033478D01*
X0316292Y0033329D01*
X0316236Y0033181D01*
X0316176Y0033035D01*
X0316112Y0032890D01*
X0316044Y0032747D01*
X0315973Y0032605D01*
X0315899Y0032465D01*
X0315821Y0032328D01*
X0315739Y0032192D01*
X0315655Y0032058D01*
X0315566Y0031927D01*
X0315475Y0031798D01*
X0315380Y0031671D01*
X0315283Y0031546D01*
X0315182Y0031424D01*
X0315078Y0031305D01*
X0314971Y0031188D01*
X0314861Y0031074D01*
X0314748Y0030963D01*
X0314633Y0030854D01*
X0314515Y0030749D01*
X0314394Y0030647D01*
X0314271Y0030547D01*
X0314145Y0030451D01*
X0314017Y0030358D01*
X0313887Y0030268D01*
X0313754Y0030182D01*
X0313619Y0030098D01*
X0313483Y0030019D01*
X0313344Y0029942D01*
X0313203Y0029870D01*
X0313061Y0029800D01*
X0312917Y0029735D01*
X0312771Y0029673D01*
X0312624Y0029615D01*
X0312475Y0029560D01*
X0312325Y0029509D01*
X0312174Y0029462D01*
X0312022Y0029419D01*
X0311869Y0029380D01*
X0311714Y0029344D01*
X0311559Y0029313D01*
X0311403Y0029285D01*
X0311247Y0029261D01*
X0311090Y0029241D01*
X0310932Y0029225D01*
X0310775Y0029213D01*
X0310616Y0029205D01*
X0310458Y0029201D01*
X0310300Y0029201D01*
X0310142Y0029205D01*
X0309983Y0029213D01*
X0309826Y0029225D01*
X0309668Y0029241D01*
X0309511Y0029261D01*
X0309355Y0029285D01*
X0309199Y0029313D01*
X0309044Y0029344D01*
X0308889Y0029380D01*
X0308736Y0029419D01*
X0308584Y0029462D01*
X0308433Y0029509D01*
X0308283Y0029560D01*
X0308134Y0029615D01*
X0307987Y0029673D01*
X0307841Y0029735D01*
X0307697Y0029800D01*
X0307555Y0029870D01*
X0307414Y0029942D01*
X0307275Y0030019D01*
X0307139Y0030098D01*
X0307004Y0030182D01*
X0306871Y0030268D01*
X0306741Y0030358D01*
X0306613Y0030451D01*
X0306487Y0030547D01*
X0306364Y0030647D01*
X0306243Y0030749D01*
X0306125Y0030854D01*
X0306010Y0030963D01*
X0305897Y0031074D01*
X0305787Y0031188D01*
X0305680Y0031305D01*
X0305576Y0031424D01*
X0305475Y0031546D01*
X0305378Y0031671D01*
X0305283Y0031798D01*
X0305192Y0031927D01*
X0305103Y0032058D01*
X0305019Y0032192D01*
X0304937Y0032328D01*
X0304859Y0032465D01*
X0304785Y0032605D01*
X0304714Y0032747D01*
X0304646Y0032890D01*
X0304582Y0033035D01*
X0304522Y0033181D01*
X0304466Y0033329D01*
X0304413Y0033478D01*
X0304364Y0033629D01*
X0304319Y0033781D01*
X0304278Y0033934D01*
X0304240Y0034087D01*
X0304207Y0034242D01*
X0304177Y0034398D01*
X0304151Y0034554D01*
X0304130Y0034711D01*
X0304112Y0034868D01*
X0304098Y0035026D01*
X0304088Y0035184D01*
X0304082Y0035342D01*
X0304080Y0035500D01*
X0304080Y0145500D02*
X0304082Y0145658D01*
X0304088Y0145816D01*
X0304098Y0145974D01*
X0304112Y0146132D01*
X0304130Y0146289D01*
X0304151Y0146446D01*
X0304177Y0146602D01*
X0304207Y0146758D01*
X0304240Y0146913D01*
X0304278Y0147066D01*
X0304319Y0147219D01*
X0304364Y0147371D01*
X0304413Y0147522D01*
X0304466Y0147671D01*
X0304522Y0147819D01*
X0304582Y0147965D01*
X0304646Y0148110D01*
X0304714Y0148253D01*
X0304785Y0148395D01*
X0304859Y0148535D01*
X0304937Y0148672D01*
X0305019Y0148808D01*
X0305103Y0148942D01*
X0305192Y0149073D01*
X0305283Y0149202D01*
X0305378Y0149329D01*
X0305475Y0149454D01*
X0305576Y0149576D01*
X0305680Y0149695D01*
X0305787Y0149812D01*
X0305897Y0149926D01*
X0306010Y0150037D01*
X0306125Y0150146D01*
X0306243Y0150251D01*
X0306364Y0150353D01*
X0306487Y0150453D01*
X0306613Y0150549D01*
X0306741Y0150642D01*
X0306871Y0150732D01*
X0307004Y0150818D01*
X0307139Y0150902D01*
X0307275Y0150981D01*
X0307414Y0151058D01*
X0307555Y0151130D01*
X0307697Y0151200D01*
X0307841Y0151265D01*
X0307987Y0151327D01*
X0308134Y0151385D01*
X0308283Y0151440D01*
X0308433Y0151491D01*
X0308584Y0151538D01*
X0308736Y0151581D01*
X0308889Y0151620D01*
X0309044Y0151656D01*
X0309199Y0151687D01*
X0309355Y0151715D01*
X0309511Y0151739D01*
X0309668Y0151759D01*
X0309826Y0151775D01*
X0309983Y0151787D01*
X0310142Y0151795D01*
X0310300Y0151799D01*
X0310458Y0151799D01*
X0310616Y0151795D01*
X0310775Y0151787D01*
X0310932Y0151775D01*
X0311090Y0151759D01*
X0311247Y0151739D01*
X0311403Y0151715D01*
X0311559Y0151687D01*
X0311714Y0151656D01*
X0311869Y0151620D01*
X0312022Y0151581D01*
X0312174Y0151538D01*
X0312325Y0151491D01*
X0312475Y0151440D01*
X0312624Y0151385D01*
X0312771Y0151327D01*
X0312917Y0151265D01*
X0313061Y0151200D01*
X0313203Y0151130D01*
X0313344Y0151058D01*
X0313483Y0150981D01*
X0313619Y0150902D01*
X0313754Y0150818D01*
X0313887Y0150732D01*
X0314017Y0150642D01*
X0314145Y0150549D01*
X0314271Y0150453D01*
X0314394Y0150353D01*
X0314515Y0150251D01*
X0314633Y0150146D01*
X0314748Y0150037D01*
X0314861Y0149926D01*
X0314971Y0149812D01*
X0315078Y0149695D01*
X0315182Y0149576D01*
X0315283Y0149454D01*
X0315380Y0149329D01*
X0315475Y0149202D01*
X0315566Y0149073D01*
X0315655Y0148942D01*
X0315739Y0148808D01*
X0315821Y0148672D01*
X0315899Y0148535D01*
X0315973Y0148395D01*
X0316044Y0148253D01*
X0316112Y0148110D01*
X0316176Y0147965D01*
X0316236Y0147819D01*
X0316292Y0147671D01*
X0316345Y0147522D01*
X0316394Y0147371D01*
X0316439Y0147219D01*
X0316480Y0147066D01*
X0316518Y0146913D01*
X0316551Y0146758D01*
X0316581Y0146602D01*
X0316607Y0146446D01*
X0316628Y0146289D01*
X0316646Y0146132D01*
X0316660Y0145974D01*
X0316670Y0145816D01*
X0316676Y0145658D01*
X0316678Y0145500D01*
X0316676Y0145342D01*
X0316670Y0145184D01*
X0316660Y0145026D01*
X0316646Y0144868D01*
X0316628Y0144711D01*
X0316607Y0144554D01*
X0316581Y0144398D01*
X0316551Y0144242D01*
X0316518Y0144087D01*
X0316480Y0143934D01*
X0316439Y0143781D01*
X0316394Y0143629D01*
X0316345Y0143478D01*
X0316292Y0143329D01*
X0316236Y0143181D01*
X0316176Y0143035D01*
X0316112Y0142890D01*
X0316044Y0142747D01*
X0315973Y0142605D01*
X0315899Y0142465D01*
X0315821Y0142328D01*
X0315739Y0142192D01*
X0315655Y0142058D01*
X0315566Y0141927D01*
X0315475Y0141798D01*
X0315380Y0141671D01*
X0315283Y0141546D01*
X0315182Y0141424D01*
X0315078Y0141305D01*
X0314971Y0141188D01*
X0314861Y0141074D01*
X0314748Y0140963D01*
X0314633Y0140854D01*
X0314515Y0140749D01*
X0314394Y0140647D01*
X0314271Y0140547D01*
X0314145Y0140451D01*
X0314017Y0140358D01*
X0313887Y0140268D01*
X0313754Y0140182D01*
X0313619Y0140098D01*
X0313483Y0140019D01*
X0313344Y0139942D01*
X0313203Y0139870D01*
X0313061Y0139800D01*
X0312917Y0139735D01*
X0312771Y0139673D01*
X0312624Y0139615D01*
X0312475Y0139560D01*
X0312325Y0139509D01*
X0312174Y0139462D01*
X0312022Y0139419D01*
X0311869Y0139380D01*
X0311714Y0139344D01*
X0311559Y0139313D01*
X0311403Y0139285D01*
X0311247Y0139261D01*
X0311090Y0139241D01*
X0310932Y0139225D01*
X0310775Y0139213D01*
X0310616Y0139205D01*
X0310458Y0139201D01*
X0310300Y0139201D01*
X0310142Y0139205D01*
X0309983Y0139213D01*
X0309826Y0139225D01*
X0309668Y0139241D01*
X0309511Y0139261D01*
X0309355Y0139285D01*
X0309199Y0139313D01*
X0309044Y0139344D01*
X0308889Y0139380D01*
X0308736Y0139419D01*
X0308584Y0139462D01*
X0308433Y0139509D01*
X0308283Y0139560D01*
X0308134Y0139615D01*
X0307987Y0139673D01*
X0307841Y0139735D01*
X0307697Y0139800D01*
X0307555Y0139870D01*
X0307414Y0139942D01*
X0307275Y0140019D01*
X0307139Y0140098D01*
X0307004Y0140182D01*
X0306871Y0140268D01*
X0306741Y0140358D01*
X0306613Y0140451D01*
X0306487Y0140547D01*
X0306364Y0140647D01*
X0306243Y0140749D01*
X0306125Y0140854D01*
X0306010Y0140963D01*
X0305897Y0141074D01*
X0305787Y0141188D01*
X0305680Y0141305D01*
X0305576Y0141424D01*
X0305475Y0141546D01*
X0305378Y0141671D01*
X0305283Y0141798D01*
X0305192Y0141927D01*
X0305103Y0142058D01*
X0305019Y0142192D01*
X0304937Y0142328D01*
X0304859Y0142465D01*
X0304785Y0142605D01*
X0304714Y0142747D01*
X0304646Y0142890D01*
X0304582Y0143035D01*
X0304522Y0143181D01*
X0304466Y0143329D01*
X0304413Y0143478D01*
X0304364Y0143629D01*
X0304319Y0143781D01*
X0304278Y0143934D01*
X0304240Y0144087D01*
X0304207Y0144242D01*
X0304177Y0144398D01*
X0304151Y0144554D01*
X0304130Y0144711D01*
X0304112Y0144868D01*
X0304098Y0145026D01*
X0304088Y0145184D01*
X0304082Y0145342D01*
X0304080Y0145500D01*
X0104080Y0205500D02*
X0104082Y0205658D01*
X0104088Y0205816D01*
X0104098Y0205974D01*
X0104112Y0206132D01*
X0104130Y0206289D01*
X0104151Y0206446D01*
X0104177Y0206602D01*
X0104207Y0206758D01*
X0104240Y0206913D01*
X0104278Y0207066D01*
X0104319Y0207219D01*
X0104364Y0207371D01*
X0104413Y0207522D01*
X0104466Y0207671D01*
X0104522Y0207819D01*
X0104582Y0207965D01*
X0104646Y0208110D01*
X0104714Y0208253D01*
X0104785Y0208395D01*
X0104859Y0208535D01*
X0104937Y0208672D01*
X0105019Y0208808D01*
X0105103Y0208942D01*
X0105192Y0209073D01*
X0105283Y0209202D01*
X0105378Y0209329D01*
X0105475Y0209454D01*
X0105576Y0209576D01*
X0105680Y0209695D01*
X0105787Y0209812D01*
X0105897Y0209926D01*
X0106010Y0210037D01*
X0106125Y0210146D01*
X0106243Y0210251D01*
X0106364Y0210353D01*
X0106487Y0210453D01*
X0106613Y0210549D01*
X0106741Y0210642D01*
X0106871Y0210732D01*
X0107004Y0210818D01*
X0107139Y0210902D01*
X0107275Y0210981D01*
X0107414Y0211058D01*
X0107555Y0211130D01*
X0107697Y0211200D01*
X0107841Y0211265D01*
X0107987Y0211327D01*
X0108134Y0211385D01*
X0108283Y0211440D01*
X0108433Y0211491D01*
X0108584Y0211538D01*
X0108736Y0211581D01*
X0108889Y0211620D01*
X0109044Y0211656D01*
X0109199Y0211687D01*
X0109355Y0211715D01*
X0109511Y0211739D01*
X0109668Y0211759D01*
X0109826Y0211775D01*
X0109983Y0211787D01*
X0110142Y0211795D01*
X0110300Y0211799D01*
X0110458Y0211799D01*
X0110616Y0211795D01*
X0110775Y0211787D01*
X0110932Y0211775D01*
X0111090Y0211759D01*
X0111247Y0211739D01*
X0111403Y0211715D01*
X0111559Y0211687D01*
X0111714Y0211656D01*
X0111869Y0211620D01*
X0112022Y0211581D01*
X0112174Y0211538D01*
X0112325Y0211491D01*
X0112475Y0211440D01*
X0112624Y0211385D01*
X0112771Y0211327D01*
X0112917Y0211265D01*
X0113061Y0211200D01*
X0113203Y0211130D01*
X0113344Y0211058D01*
X0113483Y0210981D01*
X0113619Y0210902D01*
X0113754Y0210818D01*
X0113887Y0210732D01*
X0114017Y0210642D01*
X0114145Y0210549D01*
X0114271Y0210453D01*
X0114394Y0210353D01*
X0114515Y0210251D01*
X0114633Y0210146D01*
X0114748Y0210037D01*
X0114861Y0209926D01*
X0114971Y0209812D01*
X0115078Y0209695D01*
X0115182Y0209576D01*
X0115283Y0209454D01*
X0115380Y0209329D01*
X0115475Y0209202D01*
X0115566Y0209073D01*
X0115655Y0208942D01*
X0115739Y0208808D01*
X0115821Y0208672D01*
X0115899Y0208535D01*
X0115973Y0208395D01*
X0116044Y0208253D01*
X0116112Y0208110D01*
X0116176Y0207965D01*
X0116236Y0207819D01*
X0116292Y0207671D01*
X0116345Y0207522D01*
X0116394Y0207371D01*
X0116439Y0207219D01*
X0116480Y0207066D01*
X0116518Y0206913D01*
X0116551Y0206758D01*
X0116581Y0206602D01*
X0116607Y0206446D01*
X0116628Y0206289D01*
X0116646Y0206132D01*
X0116660Y0205974D01*
X0116670Y0205816D01*
X0116676Y0205658D01*
X0116678Y0205500D01*
X0116676Y0205342D01*
X0116670Y0205184D01*
X0116660Y0205026D01*
X0116646Y0204868D01*
X0116628Y0204711D01*
X0116607Y0204554D01*
X0116581Y0204398D01*
X0116551Y0204242D01*
X0116518Y0204087D01*
X0116480Y0203934D01*
X0116439Y0203781D01*
X0116394Y0203629D01*
X0116345Y0203478D01*
X0116292Y0203329D01*
X0116236Y0203181D01*
X0116176Y0203035D01*
X0116112Y0202890D01*
X0116044Y0202747D01*
X0115973Y0202605D01*
X0115899Y0202465D01*
X0115821Y0202328D01*
X0115739Y0202192D01*
X0115655Y0202058D01*
X0115566Y0201927D01*
X0115475Y0201798D01*
X0115380Y0201671D01*
X0115283Y0201546D01*
X0115182Y0201424D01*
X0115078Y0201305D01*
X0114971Y0201188D01*
X0114861Y0201074D01*
X0114748Y0200963D01*
X0114633Y0200854D01*
X0114515Y0200749D01*
X0114394Y0200647D01*
X0114271Y0200547D01*
X0114145Y0200451D01*
X0114017Y0200358D01*
X0113887Y0200268D01*
X0113754Y0200182D01*
X0113619Y0200098D01*
X0113483Y0200019D01*
X0113344Y0199942D01*
X0113203Y0199870D01*
X0113061Y0199800D01*
X0112917Y0199735D01*
X0112771Y0199673D01*
X0112624Y0199615D01*
X0112475Y0199560D01*
X0112325Y0199509D01*
X0112174Y0199462D01*
X0112022Y0199419D01*
X0111869Y0199380D01*
X0111714Y0199344D01*
X0111559Y0199313D01*
X0111403Y0199285D01*
X0111247Y0199261D01*
X0111090Y0199241D01*
X0110932Y0199225D01*
X0110775Y0199213D01*
X0110616Y0199205D01*
X0110458Y0199201D01*
X0110300Y0199201D01*
X0110142Y0199205D01*
X0109983Y0199213D01*
X0109826Y0199225D01*
X0109668Y0199241D01*
X0109511Y0199261D01*
X0109355Y0199285D01*
X0109199Y0199313D01*
X0109044Y0199344D01*
X0108889Y0199380D01*
X0108736Y0199419D01*
X0108584Y0199462D01*
X0108433Y0199509D01*
X0108283Y0199560D01*
X0108134Y0199615D01*
X0107987Y0199673D01*
X0107841Y0199735D01*
X0107697Y0199800D01*
X0107555Y0199870D01*
X0107414Y0199942D01*
X0107275Y0200019D01*
X0107139Y0200098D01*
X0107004Y0200182D01*
X0106871Y0200268D01*
X0106741Y0200358D01*
X0106613Y0200451D01*
X0106487Y0200547D01*
X0106364Y0200647D01*
X0106243Y0200749D01*
X0106125Y0200854D01*
X0106010Y0200963D01*
X0105897Y0201074D01*
X0105787Y0201188D01*
X0105680Y0201305D01*
X0105576Y0201424D01*
X0105475Y0201546D01*
X0105378Y0201671D01*
X0105283Y0201798D01*
X0105192Y0201927D01*
X0105103Y0202058D01*
X0105019Y0202192D01*
X0104937Y0202328D01*
X0104859Y0202465D01*
X0104785Y0202605D01*
X0104714Y0202747D01*
X0104646Y0202890D01*
X0104582Y0203035D01*
X0104522Y0203181D01*
X0104466Y0203329D01*
X0104413Y0203478D01*
X0104364Y0203629D01*
X0104319Y0203781D01*
X0104278Y0203934D01*
X0104240Y0204087D01*
X0104207Y0204242D01*
X0104177Y0204398D01*
X0104151Y0204554D01*
X0104130Y0204711D01*
X0104112Y0204868D01*
X0104098Y0205026D01*
X0104088Y0205184D01*
X0104082Y0205342D01*
X0104080Y0205500D01*
D12*
X0124379Y0206900D02*
X0124379Y0204100D01*
X0134379Y0204100D02*
X0134379Y0206900D01*
X0144379Y0206900D02*
X0144379Y0204100D01*
X0154379Y0204100D02*
X0154379Y0206900D01*
X0164379Y0206900D02*
X0164379Y0204100D01*
X0174379Y0204100D02*
X0174379Y0206900D01*
X0184379Y0206900D02*
X0184379Y0204100D01*
X0194379Y0204100D02*
X0194379Y0206900D01*
X0204379Y0206900D02*
X0204379Y0204100D01*
X0214379Y0204100D02*
X0214379Y0206900D01*
X0230379Y0206900D02*
X0230379Y0204100D01*
X0240379Y0204100D02*
X0240379Y0206900D01*
X0250379Y0206900D02*
X0250379Y0204100D01*
X0260379Y0204100D02*
X0260379Y0206900D01*
X0270379Y0206900D02*
X0270379Y0204100D01*
X0280379Y0204100D02*
X0280379Y0206900D01*
X0290379Y0206900D02*
X0290379Y0204100D01*
X0300379Y0204100D02*
X0300379Y0206900D01*
X0300379Y0016900D02*
X0300379Y0014100D01*
X0290379Y0014100D02*
X0290379Y0016900D01*
X0280379Y0016900D02*
X0280379Y0014100D01*
X0270379Y0014100D02*
X0270379Y0016900D01*
X0260379Y0016900D02*
X0260379Y0014100D01*
X0250379Y0014100D02*
X0250379Y0016900D01*
X0230379Y0016900D02*
X0230379Y0014100D01*
X0220379Y0014100D02*
X0220379Y0016900D01*
X0210379Y0016900D02*
X0210379Y0014100D01*
X0200379Y0014100D02*
X0200379Y0016900D01*
X0190379Y0016900D02*
X0190379Y0014100D01*
X0180379Y0014100D02*
X0180379Y0016900D01*
X0170379Y0016900D02*
X0170379Y0014100D01*
X0160379Y0014100D02*
X0160379Y0016900D01*
D13*
X0282879Y0135000D03*
D14*
X0272879Y0135000D03*
X0262879Y0135000D03*
X0252879Y0135000D03*
X0235379Y0155500D03*
X0214379Y0135000D03*
X0204379Y0135000D03*
X0194379Y0135000D03*
X0184379Y0135000D03*
X0174379Y0135000D03*
X0164379Y0135000D03*
X0154379Y0135000D03*
X0144379Y0135000D03*
X0134379Y0134000D03*
X0124379Y0134000D03*
X0114379Y0134000D03*
X0104379Y0134000D03*
X0094379Y0134000D03*
X0084379Y0134000D03*
X0074379Y0134000D03*
X0064379Y0134000D03*
X0285379Y0155500D03*
D15*
X0244379Y0102000D03*
X0214379Y0102000D03*
X0173879Y0113000D03*
X0143879Y0113000D03*
X0140379Y0150500D03*
X0170379Y0150500D03*
M02*
