G75*
%MOIN*%
%OFA0B0*%
%FSLAX25Y25*%
%IPPOS*%
%LPD*%
%AMOC8*
5,1,8,0,0,1.08239X$1,22.5*
%
%ADD10C,0.05600*%
%ADD11R,0.07400X0.07400*%
%ADD12C,0.07400*%
%ADD13C,0.08000*%
%ADD14C,0.20000*%
%ADD15OC8,0.10650*%
%ADD16OC8,0.06300*%
%ADD17OC8,0.06000*%
D10*
X0170379Y0152232D02*
X0170379Y0155032D01*
X0180379Y0155032D02*
X0180379Y0152232D01*
X0190379Y0152232D02*
X0190379Y0155032D01*
X0200379Y0155032D02*
X0200379Y0152232D01*
X0210379Y0152232D02*
X0210379Y0155032D01*
X0220379Y0155032D02*
X0220379Y0152232D01*
X0230379Y0152232D02*
X0230379Y0155032D01*
X0240379Y0155032D02*
X0240379Y0152232D01*
X0260379Y0152232D02*
X0260379Y0155032D01*
X0270379Y0155032D02*
X0270379Y0152232D01*
X0280379Y0152232D02*
X0280379Y0155032D01*
X0290379Y0155032D02*
X0290379Y0152232D01*
X0300379Y0152232D02*
X0300379Y0155032D01*
X0310379Y0155032D02*
X0310379Y0152232D01*
X0310379Y0342232D02*
X0310379Y0345032D01*
X0300379Y0345032D02*
X0300379Y0342232D01*
X0290379Y0342232D02*
X0290379Y0345032D01*
X0280379Y0345032D02*
X0280379Y0342232D01*
X0270379Y0342232D02*
X0270379Y0345032D01*
X0260379Y0345032D02*
X0260379Y0342232D01*
X0250379Y0342232D02*
X0250379Y0345032D01*
X0240379Y0345032D02*
X0240379Y0342232D01*
X0224379Y0342232D02*
X0224379Y0345032D01*
X0214379Y0345032D02*
X0214379Y0342232D01*
X0204379Y0342232D02*
X0204379Y0345032D01*
X0194379Y0345032D02*
X0194379Y0342232D01*
X0184379Y0342232D02*
X0184379Y0345032D01*
X0174379Y0345032D02*
X0174379Y0342232D01*
X0164379Y0342232D02*
X0164379Y0345032D01*
X0154379Y0345032D02*
X0154379Y0342232D01*
X0144379Y0342232D02*
X0144379Y0345032D01*
X0134379Y0345032D02*
X0134379Y0342232D01*
D11*
X0152190Y0069223D03*
X0272879Y0063132D03*
D12*
X0262879Y0063132D03*
X0252879Y0063132D03*
X0242879Y0063132D03*
X0146718Y0058042D03*
X0135812Y0058042D03*
X0124946Y0058042D03*
X0114040Y0058042D03*
X0119473Y0069223D03*
X0108568Y0069223D03*
X0130379Y0069223D03*
X0141284Y0069223D03*
X0270379Y0173632D03*
X0270379Y0223632D03*
D13*
X0155379Y0293632D03*
X0155379Y0323632D03*
D14*
X0081166Y0063632D03*
X0179592Y0063632D03*
D15*
X0169879Y0090132D03*
X0169879Y0108632D03*
X0169879Y0127132D03*
X0150879Y0127132D03*
X0150879Y0108632D03*
X0150879Y0090132D03*
X0103879Y0104132D03*
X0085379Y0104132D03*
X0066879Y0104132D03*
X0066879Y0123132D03*
X0085379Y0123132D03*
X0103879Y0123132D03*
D16*
X0130379Y0098632D03*
X0160379Y0118632D03*
X0190379Y0098632D03*
X0200379Y0118632D03*
X0085379Y0088632D03*
X0055379Y0088632D03*
X0085379Y0158632D03*
X0085379Y0188632D03*
D17*
X0165579Y0248032D03*
X0176479Y0248032D03*
X0187379Y0248032D03*
X0198179Y0248032D03*
X0209079Y0248032D03*
X0219979Y0248032D03*
X0230779Y0248032D03*
X0241679Y0248032D03*
X0252579Y0248032D03*
X0263379Y0248032D03*
X0274279Y0248032D03*
X0285179Y0248032D03*
X0290579Y0259232D03*
X0279679Y0259232D03*
X0268879Y0259232D03*
X0257979Y0259232D03*
X0247079Y0259232D03*
X0236279Y0259232D03*
X0225379Y0259232D03*
X0214479Y0259232D03*
X0203679Y0259232D03*
X0192779Y0259232D03*
X0181879Y0259232D03*
X0171079Y0259232D03*
X0160179Y0259232D03*
M02*
