G75*
%MOIN*%
%OFA0B0*%
%FSLAX25Y25*%
%IPPOS*%
%LPD*%
%AMOC8*
5,1,8,0,0,1.08239X$1,22.5*
%
%ADD10C,0.01000*%
%ADD11C,0.00000*%
%ADD12C,0.05000*%
%ADD13C,0.05600*%
%ADD14R,0.07400X0.07400*%
%ADD15C,0.07400*%
%ADD16C,0.08000*%
%ADD17C,0.20000*%
%ADD18OC8,0.10650*%
%ADD19C,0.00591*%
%ADD20OC8,0.06300*%
%ADD21OC8,0.06000*%
%ADD22C,0.03200*%
D10*
X0040379Y0022569D02*
X0040379Y0354695D01*
X0040381Y0354819D01*
X0040387Y0354942D01*
X0040396Y0355066D01*
X0040410Y0355188D01*
X0040427Y0355311D01*
X0040449Y0355433D01*
X0040474Y0355554D01*
X0040503Y0355674D01*
X0040535Y0355793D01*
X0040572Y0355912D01*
X0040612Y0356029D01*
X0040655Y0356144D01*
X0040703Y0356259D01*
X0040754Y0356371D01*
X0040808Y0356482D01*
X0040866Y0356592D01*
X0040927Y0356699D01*
X0040992Y0356805D01*
X0041060Y0356908D01*
X0041131Y0357009D01*
X0041205Y0357108D01*
X0041282Y0357205D01*
X0041363Y0357299D01*
X0041446Y0357390D01*
X0041532Y0357479D01*
X0041621Y0357565D01*
X0041712Y0357648D01*
X0041806Y0357729D01*
X0041903Y0357806D01*
X0042002Y0357880D01*
X0042103Y0357951D01*
X0042206Y0358019D01*
X0042312Y0358084D01*
X0042419Y0358145D01*
X0042529Y0358203D01*
X0042640Y0358257D01*
X0042752Y0358308D01*
X0042867Y0358356D01*
X0042982Y0358399D01*
X0043099Y0358439D01*
X0043218Y0358476D01*
X0043337Y0358508D01*
X0043457Y0358537D01*
X0043578Y0358562D01*
X0043700Y0358584D01*
X0043823Y0358601D01*
X0043945Y0358615D01*
X0044069Y0358624D01*
X0044192Y0358630D01*
X0044316Y0358632D01*
X0324379Y0358632D01*
X0330379Y0352632D01*
X0330379Y0302632D01*
X0345379Y0292632D01*
X0345379Y0163632D01*
X0335379Y0153632D01*
X0335379Y0027569D01*
X0335315Y0027293D01*
X0335245Y0027019D01*
X0335168Y0026747D01*
X0335084Y0026477D01*
X0334994Y0026209D01*
X0334898Y0025943D01*
X0334795Y0025679D01*
X0334686Y0025418D01*
X0334570Y0025160D01*
X0334448Y0024905D01*
X0334320Y0024652D01*
X0334187Y0024403D01*
X0334047Y0024157D01*
X0333901Y0023915D01*
X0333749Y0023676D01*
X0333592Y0023441D01*
X0333429Y0023210D01*
X0333260Y0022982D01*
X0333086Y0022759D01*
X0332907Y0022540D01*
X0332723Y0022326D01*
X0332533Y0022116D01*
X0332338Y0021911D01*
X0332139Y0021710D01*
X0331934Y0021515D01*
X0331725Y0021324D01*
X0331512Y0021138D01*
X0331294Y0020958D01*
X0331071Y0020783D01*
X0330845Y0020614D01*
X0330614Y0020450D01*
X0330380Y0020291D01*
X0330142Y0020138D01*
X0329900Y0019992D01*
X0329655Y0019851D01*
X0329406Y0019715D01*
X0329154Y0019586D01*
X0328900Y0019464D01*
X0328642Y0019347D01*
X0328381Y0019236D01*
X0328118Y0019132D01*
X0327853Y0019035D01*
X0327585Y0018943D01*
X0327315Y0018859D01*
X0327043Y0018780D01*
X0326770Y0018709D01*
X0326494Y0018644D01*
X0326218Y0018585D01*
X0325939Y0018534D01*
X0325660Y0018489D01*
X0325380Y0018451D01*
X0325099Y0018419D01*
X0324817Y0018395D01*
X0324534Y0018377D01*
X0324252Y0018366D01*
X0323969Y0018362D01*
X0323686Y0018365D01*
X0323403Y0018374D01*
X0323121Y0018391D01*
X0322839Y0018414D01*
X0322558Y0018444D01*
X0322277Y0018481D01*
X0321997Y0018525D01*
X0321719Y0018575D01*
X0321442Y0018632D01*
X0044316Y0018632D01*
X0044192Y0018634D01*
X0044069Y0018640D01*
X0043945Y0018649D01*
X0043823Y0018663D01*
X0043700Y0018680D01*
X0043578Y0018702D01*
X0043457Y0018727D01*
X0043337Y0018756D01*
X0043218Y0018788D01*
X0043099Y0018825D01*
X0042982Y0018865D01*
X0042867Y0018908D01*
X0042752Y0018956D01*
X0042640Y0019007D01*
X0042529Y0019061D01*
X0042419Y0019119D01*
X0042312Y0019180D01*
X0042206Y0019245D01*
X0042103Y0019313D01*
X0042002Y0019384D01*
X0041903Y0019458D01*
X0041806Y0019535D01*
X0041712Y0019616D01*
X0041621Y0019699D01*
X0041532Y0019785D01*
X0041446Y0019874D01*
X0041363Y0019965D01*
X0041282Y0020059D01*
X0041205Y0020156D01*
X0041131Y0020255D01*
X0041060Y0020356D01*
X0040992Y0020459D01*
X0040927Y0020565D01*
X0040866Y0020672D01*
X0040808Y0020782D01*
X0040754Y0020893D01*
X0040703Y0021005D01*
X0040655Y0021120D01*
X0040612Y0021235D01*
X0040572Y0021352D01*
X0040535Y0021471D01*
X0040503Y0021590D01*
X0040474Y0021710D01*
X0040449Y0021831D01*
X0040427Y0021953D01*
X0040410Y0022076D01*
X0040396Y0022198D01*
X0040387Y0022322D01*
X0040381Y0022445D01*
X0040379Y0022569D01*
D11*
X0044080Y0028632D02*
X0044082Y0028790D01*
X0044088Y0028948D01*
X0044098Y0029106D01*
X0044112Y0029264D01*
X0044130Y0029421D01*
X0044151Y0029578D01*
X0044177Y0029734D01*
X0044207Y0029890D01*
X0044240Y0030045D01*
X0044278Y0030198D01*
X0044319Y0030351D01*
X0044364Y0030503D01*
X0044413Y0030654D01*
X0044466Y0030803D01*
X0044522Y0030951D01*
X0044582Y0031097D01*
X0044646Y0031242D01*
X0044714Y0031385D01*
X0044785Y0031527D01*
X0044859Y0031667D01*
X0044937Y0031804D01*
X0045019Y0031940D01*
X0045103Y0032074D01*
X0045192Y0032205D01*
X0045283Y0032334D01*
X0045378Y0032461D01*
X0045475Y0032586D01*
X0045576Y0032708D01*
X0045680Y0032827D01*
X0045787Y0032944D01*
X0045897Y0033058D01*
X0046010Y0033169D01*
X0046125Y0033278D01*
X0046243Y0033383D01*
X0046364Y0033485D01*
X0046487Y0033585D01*
X0046613Y0033681D01*
X0046741Y0033774D01*
X0046871Y0033864D01*
X0047004Y0033950D01*
X0047139Y0034034D01*
X0047275Y0034113D01*
X0047414Y0034190D01*
X0047555Y0034262D01*
X0047697Y0034332D01*
X0047841Y0034397D01*
X0047987Y0034459D01*
X0048134Y0034517D01*
X0048283Y0034572D01*
X0048433Y0034623D01*
X0048584Y0034670D01*
X0048736Y0034713D01*
X0048889Y0034752D01*
X0049044Y0034788D01*
X0049199Y0034819D01*
X0049355Y0034847D01*
X0049511Y0034871D01*
X0049668Y0034891D01*
X0049826Y0034907D01*
X0049983Y0034919D01*
X0050142Y0034927D01*
X0050300Y0034931D01*
X0050458Y0034931D01*
X0050616Y0034927D01*
X0050775Y0034919D01*
X0050932Y0034907D01*
X0051090Y0034891D01*
X0051247Y0034871D01*
X0051403Y0034847D01*
X0051559Y0034819D01*
X0051714Y0034788D01*
X0051869Y0034752D01*
X0052022Y0034713D01*
X0052174Y0034670D01*
X0052325Y0034623D01*
X0052475Y0034572D01*
X0052624Y0034517D01*
X0052771Y0034459D01*
X0052917Y0034397D01*
X0053061Y0034332D01*
X0053203Y0034262D01*
X0053344Y0034190D01*
X0053483Y0034113D01*
X0053619Y0034034D01*
X0053754Y0033950D01*
X0053887Y0033864D01*
X0054017Y0033774D01*
X0054145Y0033681D01*
X0054271Y0033585D01*
X0054394Y0033485D01*
X0054515Y0033383D01*
X0054633Y0033278D01*
X0054748Y0033169D01*
X0054861Y0033058D01*
X0054971Y0032944D01*
X0055078Y0032827D01*
X0055182Y0032708D01*
X0055283Y0032586D01*
X0055380Y0032461D01*
X0055475Y0032334D01*
X0055566Y0032205D01*
X0055655Y0032074D01*
X0055739Y0031940D01*
X0055821Y0031804D01*
X0055899Y0031667D01*
X0055973Y0031527D01*
X0056044Y0031385D01*
X0056112Y0031242D01*
X0056176Y0031097D01*
X0056236Y0030951D01*
X0056292Y0030803D01*
X0056345Y0030654D01*
X0056394Y0030503D01*
X0056439Y0030351D01*
X0056480Y0030198D01*
X0056518Y0030045D01*
X0056551Y0029890D01*
X0056581Y0029734D01*
X0056607Y0029578D01*
X0056628Y0029421D01*
X0056646Y0029264D01*
X0056660Y0029106D01*
X0056670Y0028948D01*
X0056676Y0028790D01*
X0056678Y0028632D01*
X0056676Y0028474D01*
X0056670Y0028316D01*
X0056660Y0028158D01*
X0056646Y0028000D01*
X0056628Y0027843D01*
X0056607Y0027686D01*
X0056581Y0027530D01*
X0056551Y0027374D01*
X0056518Y0027219D01*
X0056480Y0027066D01*
X0056439Y0026913D01*
X0056394Y0026761D01*
X0056345Y0026610D01*
X0056292Y0026461D01*
X0056236Y0026313D01*
X0056176Y0026167D01*
X0056112Y0026022D01*
X0056044Y0025879D01*
X0055973Y0025737D01*
X0055899Y0025597D01*
X0055821Y0025460D01*
X0055739Y0025324D01*
X0055655Y0025190D01*
X0055566Y0025059D01*
X0055475Y0024930D01*
X0055380Y0024803D01*
X0055283Y0024678D01*
X0055182Y0024556D01*
X0055078Y0024437D01*
X0054971Y0024320D01*
X0054861Y0024206D01*
X0054748Y0024095D01*
X0054633Y0023986D01*
X0054515Y0023881D01*
X0054394Y0023779D01*
X0054271Y0023679D01*
X0054145Y0023583D01*
X0054017Y0023490D01*
X0053887Y0023400D01*
X0053754Y0023314D01*
X0053619Y0023230D01*
X0053483Y0023151D01*
X0053344Y0023074D01*
X0053203Y0023002D01*
X0053061Y0022932D01*
X0052917Y0022867D01*
X0052771Y0022805D01*
X0052624Y0022747D01*
X0052475Y0022692D01*
X0052325Y0022641D01*
X0052174Y0022594D01*
X0052022Y0022551D01*
X0051869Y0022512D01*
X0051714Y0022476D01*
X0051559Y0022445D01*
X0051403Y0022417D01*
X0051247Y0022393D01*
X0051090Y0022373D01*
X0050932Y0022357D01*
X0050775Y0022345D01*
X0050616Y0022337D01*
X0050458Y0022333D01*
X0050300Y0022333D01*
X0050142Y0022337D01*
X0049983Y0022345D01*
X0049826Y0022357D01*
X0049668Y0022373D01*
X0049511Y0022393D01*
X0049355Y0022417D01*
X0049199Y0022445D01*
X0049044Y0022476D01*
X0048889Y0022512D01*
X0048736Y0022551D01*
X0048584Y0022594D01*
X0048433Y0022641D01*
X0048283Y0022692D01*
X0048134Y0022747D01*
X0047987Y0022805D01*
X0047841Y0022867D01*
X0047697Y0022932D01*
X0047555Y0023002D01*
X0047414Y0023074D01*
X0047275Y0023151D01*
X0047139Y0023230D01*
X0047004Y0023314D01*
X0046871Y0023400D01*
X0046741Y0023490D01*
X0046613Y0023583D01*
X0046487Y0023679D01*
X0046364Y0023779D01*
X0046243Y0023881D01*
X0046125Y0023986D01*
X0046010Y0024095D01*
X0045897Y0024206D01*
X0045787Y0024320D01*
X0045680Y0024437D01*
X0045576Y0024556D01*
X0045475Y0024678D01*
X0045378Y0024803D01*
X0045283Y0024930D01*
X0045192Y0025059D01*
X0045103Y0025190D01*
X0045019Y0025324D01*
X0044937Y0025460D01*
X0044859Y0025597D01*
X0044785Y0025737D01*
X0044714Y0025879D01*
X0044646Y0026022D01*
X0044582Y0026167D01*
X0044522Y0026313D01*
X0044466Y0026461D01*
X0044413Y0026610D01*
X0044364Y0026761D01*
X0044319Y0026913D01*
X0044278Y0027066D01*
X0044240Y0027219D01*
X0044207Y0027374D01*
X0044177Y0027530D01*
X0044151Y0027686D01*
X0044130Y0027843D01*
X0044112Y0028000D01*
X0044098Y0028158D01*
X0044088Y0028316D01*
X0044082Y0028474D01*
X0044080Y0028632D01*
X0126279Y0253632D02*
X0126281Y0253793D01*
X0126287Y0253953D01*
X0126297Y0254114D01*
X0126311Y0254274D01*
X0126329Y0254434D01*
X0126350Y0254593D01*
X0126376Y0254752D01*
X0126406Y0254910D01*
X0126439Y0255067D01*
X0126477Y0255224D01*
X0126518Y0255379D01*
X0126563Y0255533D01*
X0126612Y0255686D01*
X0126665Y0255838D01*
X0126721Y0255989D01*
X0126782Y0256138D01*
X0126845Y0256286D01*
X0126913Y0256432D01*
X0126984Y0256576D01*
X0127058Y0256718D01*
X0127136Y0256859D01*
X0127218Y0256997D01*
X0127303Y0257134D01*
X0127391Y0257268D01*
X0127483Y0257400D01*
X0127578Y0257530D01*
X0127676Y0257658D01*
X0127777Y0257783D01*
X0127881Y0257905D01*
X0127988Y0258025D01*
X0128098Y0258142D01*
X0128211Y0258257D01*
X0128327Y0258368D01*
X0128446Y0258477D01*
X0128567Y0258582D01*
X0128691Y0258685D01*
X0128817Y0258785D01*
X0128945Y0258881D01*
X0129076Y0258974D01*
X0129210Y0259064D01*
X0129345Y0259151D01*
X0129483Y0259234D01*
X0129622Y0259314D01*
X0129764Y0259390D01*
X0129907Y0259463D01*
X0130052Y0259532D01*
X0130199Y0259598D01*
X0130347Y0259660D01*
X0130497Y0259718D01*
X0130648Y0259773D01*
X0130801Y0259824D01*
X0130955Y0259871D01*
X0131110Y0259914D01*
X0131266Y0259953D01*
X0131422Y0259989D01*
X0131580Y0260020D01*
X0131738Y0260048D01*
X0131897Y0260072D01*
X0132057Y0260092D01*
X0132217Y0260108D01*
X0132377Y0260120D01*
X0132538Y0260128D01*
X0132699Y0260132D01*
X0132859Y0260132D01*
X0133020Y0260128D01*
X0133181Y0260120D01*
X0133341Y0260108D01*
X0133501Y0260092D01*
X0133661Y0260072D01*
X0133820Y0260048D01*
X0133978Y0260020D01*
X0134136Y0259989D01*
X0134292Y0259953D01*
X0134448Y0259914D01*
X0134603Y0259871D01*
X0134757Y0259824D01*
X0134910Y0259773D01*
X0135061Y0259718D01*
X0135211Y0259660D01*
X0135359Y0259598D01*
X0135506Y0259532D01*
X0135651Y0259463D01*
X0135794Y0259390D01*
X0135936Y0259314D01*
X0136075Y0259234D01*
X0136213Y0259151D01*
X0136348Y0259064D01*
X0136482Y0258974D01*
X0136613Y0258881D01*
X0136741Y0258785D01*
X0136867Y0258685D01*
X0136991Y0258582D01*
X0137112Y0258477D01*
X0137231Y0258368D01*
X0137347Y0258257D01*
X0137460Y0258142D01*
X0137570Y0258025D01*
X0137677Y0257905D01*
X0137781Y0257783D01*
X0137882Y0257658D01*
X0137980Y0257530D01*
X0138075Y0257400D01*
X0138167Y0257268D01*
X0138255Y0257134D01*
X0138340Y0256997D01*
X0138422Y0256859D01*
X0138500Y0256718D01*
X0138574Y0256576D01*
X0138645Y0256432D01*
X0138713Y0256286D01*
X0138776Y0256138D01*
X0138837Y0255989D01*
X0138893Y0255838D01*
X0138946Y0255686D01*
X0138995Y0255533D01*
X0139040Y0255379D01*
X0139081Y0255224D01*
X0139119Y0255067D01*
X0139152Y0254910D01*
X0139182Y0254752D01*
X0139208Y0254593D01*
X0139229Y0254434D01*
X0139247Y0254274D01*
X0139261Y0254114D01*
X0139271Y0253953D01*
X0139277Y0253793D01*
X0139279Y0253632D01*
X0139277Y0253471D01*
X0139271Y0253311D01*
X0139261Y0253150D01*
X0139247Y0252990D01*
X0139229Y0252830D01*
X0139208Y0252671D01*
X0139182Y0252512D01*
X0139152Y0252354D01*
X0139119Y0252197D01*
X0139081Y0252040D01*
X0139040Y0251885D01*
X0138995Y0251731D01*
X0138946Y0251578D01*
X0138893Y0251426D01*
X0138837Y0251275D01*
X0138776Y0251126D01*
X0138713Y0250978D01*
X0138645Y0250832D01*
X0138574Y0250688D01*
X0138500Y0250546D01*
X0138422Y0250405D01*
X0138340Y0250267D01*
X0138255Y0250130D01*
X0138167Y0249996D01*
X0138075Y0249864D01*
X0137980Y0249734D01*
X0137882Y0249606D01*
X0137781Y0249481D01*
X0137677Y0249359D01*
X0137570Y0249239D01*
X0137460Y0249122D01*
X0137347Y0249007D01*
X0137231Y0248896D01*
X0137112Y0248787D01*
X0136991Y0248682D01*
X0136867Y0248579D01*
X0136741Y0248479D01*
X0136613Y0248383D01*
X0136482Y0248290D01*
X0136348Y0248200D01*
X0136213Y0248113D01*
X0136075Y0248030D01*
X0135936Y0247950D01*
X0135794Y0247874D01*
X0135651Y0247801D01*
X0135506Y0247732D01*
X0135359Y0247666D01*
X0135211Y0247604D01*
X0135061Y0247546D01*
X0134910Y0247491D01*
X0134757Y0247440D01*
X0134603Y0247393D01*
X0134448Y0247350D01*
X0134292Y0247311D01*
X0134136Y0247275D01*
X0133978Y0247244D01*
X0133820Y0247216D01*
X0133661Y0247192D01*
X0133501Y0247172D01*
X0133341Y0247156D01*
X0133181Y0247144D01*
X0133020Y0247136D01*
X0132859Y0247132D01*
X0132699Y0247132D01*
X0132538Y0247136D01*
X0132377Y0247144D01*
X0132217Y0247156D01*
X0132057Y0247172D01*
X0131897Y0247192D01*
X0131738Y0247216D01*
X0131580Y0247244D01*
X0131422Y0247275D01*
X0131266Y0247311D01*
X0131110Y0247350D01*
X0130955Y0247393D01*
X0130801Y0247440D01*
X0130648Y0247491D01*
X0130497Y0247546D01*
X0130347Y0247604D01*
X0130199Y0247666D01*
X0130052Y0247732D01*
X0129907Y0247801D01*
X0129764Y0247874D01*
X0129622Y0247950D01*
X0129483Y0248030D01*
X0129345Y0248113D01*
X0129210Y0248200D01*
X0129076Y0248290D01*
X0128945Y0248383D01*
X0128817Y0248479D01*
X0128691Y0248579D01*
X0128567Y0248682D01*
X0128446Y0248787D01*
X0128327Y0248896D01*
X0128211Y0249007D01*
X0128098Y0249122D01*
X0127988Y0249239D01*
X0127881Y0249359D01*
X0127777Y0249481D01*
X0127676Y0249606D01*
X0127578Y0249734D01*
X0127483Y0249864D01*
X0127391Y0249996D01*
X0127303Y0250130D01*
X0127218Y0250267D01*
X0127136Y0250405D01*
X0127058Y0250546D01*
X0126984Y0250688D01*
X0126913Y0250832D01*
X0126845Y0250978D01*
X0126782Y0251126D01*
X0126721Y0251275D01*
X0126665Y0251426D01*
X0126612Y0251578D01*
X0126563Y0251731D01*
X0126518Y0251885D01*
X0126477Y0252040D01*
X0126439Y0252197D01*
X0126406Y0252354D01*
X0126376Y0252512D01*
X0126350Y0252671D01*
X0126329Y0252830D01*
X0126311Y0252990D01*
X0126297Y0253150D01*
X0126287Y0253311D01*
X0126281Y0253471D01*
X0126279Y0253632D01*
X0044080Y0348632D02*
X0044082Y0348790D01*
X0044088Y0348948D01*
X0044098Y0349106D01*
X0044112Y0349264D01*
X0044130Y0349421D01*
X0044151Y0349578D01*
X0044177Y0349734D01*
X0044207Y0349890D01*
X0044240Y0350045D01*
X0044278Y0350198D01*
X0044319Y0350351D01*
X0044364Y0350503D01*
X0044413Y0350654D01*
X0044466Y0350803D01*
X0044522Y0350951D01*
X0044582Y0351097D01*
X0044646Y0351242D01*
X0044714Y0351385D01*
X0044785Y0351527D01*
X0044859Y0351667D01*
X0044937Y0351804D01*
X0045019Y0351940D01*
X0045103Y0352074D01*
X0045192Y0352205D01*
X0045283Y0352334D01*
X0045378Y0352461D01*
X0045475Y0352586D01*
X0045576Y0352708D01*
X0045680Y0352827D01*
X0045787Y0352944D01*
X0045897Y0353058D01*
X0046010Y0353169D01*
X0046125Y0353278D01*
X0046243Y0353383D01*
X0046364Y0353485D01*
X0046487Y0353585D01*
X0046613Y0353681D01*
X0046741Y0353774D01*
X0046871Y0353864D01*
X0047004Y0353950D01*
X0047139Y0354034D01*
X0047275Y0354113D01*
X0047414Y0354190D01*
X0047555Y0354262D01*
X0047697Y0354332D01*
X0047841Y0354397D01*
X0047987Y0354459D01*
X0048134Y0354517D01*
X0048283Y0354572D01*
X0048433Y0354623D01*
X0048584Y0354670D01*
X0048736Y0354713D01*
X0048889Y0354752D01*
X0049044Y0354788D01*
X0049199Y0354819D01*
X0049355Y0354847D01*
X0049511Y0354871D01*
X0049668Y0354891D01*
X0049826Y0354907D01*
X0049983Y0354919D01*
X0050142Y0354927D01*
X0050300Y0354931D01*
X0050458Y0354931D01*
X0050616Y0354927D01*
X0050775Y0354919D01*
X0050932Y0354907D01*
X0051090Y0354891D01*
X0051247Y0354871D01*
X0051403Y0354847D01*
X0051559Y0354819D01*
X0051714Y0354788D01*
X0051869Y0354752D01*
X0052022Y0354713D01*
X0052174Y0354670D01*
X0052325Y0354623D01*
X0052475Y0354572D01*
X0052624Y0354517D01*
X0052771Y0354459D01*
X0052917Y0354397D01*
X0053061Y0354332D01*
X0053203Y0354262D01*
X0053344Y0354190D01*
X0053483Y0354113D01*
X0053619Y0354034D01*
X0053754Y0353950D01*
X0053887Y0353864D01*
X0054017Y0353774D01*
X0054145Y0353681D01*
X0054271Y0353585D01*
X0054394Y0353485D01*
X0054515Y0353383D01*
X0054633Y0353278D01*
X0054748Y0353169D01*
X0054861Y0353058D01*
X0054971Y0352944D01*
X0055078Y0352827D01*
X0055182Y0352708D01*
X0055283Y0352586D01*
X0055380Y0352461D01*
X0055475Y0352334D01*
X0055566Y0352205D01*
X0055655Y0352074D01*
X0055739Y0351940D01*
X0055821Y0351804D01*
X0055899Y0351667D01*
X0055973Y0351527D01*
X0056044Y0351385D01*
X0056112Y0351242D01*
X0056176Y0351097D01*
X0056236Y0350951D01*
X0056292Y0350803D01*
X0056345Y0350654D01*
X0056394Y0350503D01*
X0056439Y0350351D01*
X0056480Y0350198D01*
X0056518Y0350045D01*
X0056551Y0349890D01*
X0056581Y0349734D01*
X0056607Y0349578D01*
X0056628Y0349421D01*
X0056646Y0349264D01*
X0056660Y0349106D01*
X0056670Y0348948D01*
X0056676Y0348790D01*
X0056678Y0348632D01*
X0056676Y0348474D01*
X0056670Y0348316D01*
X0056660Y0348158D01*
X0056646Y0348000D01*
X0056628Y0347843D01*
X0056607Y0347686D01*
X0056581Y0347530D01*
X0056551Y0347374D01*
X0056518Y0347219D01*
X0056480Y0347066D01*
X0056439Y0346913D01*
X0056394Y0346761D01*
X0056345Y0346610D01*
X0056292Y0346461D01*
X0056236Y0346313D01*
X0056176Y0346167D01*
X0056112Y0346022D01*
X0056044Y0345879D01*
X0055973Y0345737D01*
X0055899Y0345597D01*
X0055821Y0345460D01*
X0055739Y0345324D01*
X0055655Y0345190D01*
X0055566Y0345059D01*
X0055475Y0344930D01*
X0055380Y0344803D01*
X0055283Y0344678D01*
X0055182Y0344556D01*
X0055078Y0344437D01*
X0054971Y0344320D01*
X0054861Y0344206D01*
X0054748Y0344095D01*
X0054633Y0343986D01*
X0054515Y0343881D01*
X0054394Y0343779D01*
X0054271Y0343679D01*
X0054145Y0343583D01*
X0054017Y0343490D01*
X0053887Y0343400D01*
X0053754Y0343314D01*
X0053619Y0343230D01*
X0053483Y0343151D01*
X0053344Y0343074D01*
X0053203Y0343002D01*
X0053061Y0342932D01*
X0052917Y0342867D01*
X0052771Y0342805D01*
X0052624Y0342747D01*
X0052475Y0342692D01*
X0052325Y0342641D01*
X0052174Y0342594D01*
X0052022Y0342551D01*
X0051869Y0342512D01*
X0051714Y0342476D01*
X0051559Y0342445D01*
X0051403Y0342417D01*
X0051247Y0342393D01*
X0051090Y0342373D01*
X0050932Y0342357D01*
X0050775Y0342345D01*
X0050616Y0342337D01*
X0050458Y0342333D01*
X0050300Y0342333D01*
X0050142Y0342337D01*
X0049983Y0342345D01*
X0049826Y0342357D01*
X0049668Y0342373D01*
X0049511Y0342393D01*
X0049355Y0342417D01*
X0049199Y0342445D01*
X0049044Y0342476D01*
X0048889Y0342512D01*
X0048736Y0342551D01*
X0048584Y0342594D01*
X0048433Y0342641D01*
X0048283Y0342692D01*
X0048134Y0342747D01*
X0047987Y0342805D01*
X0047841Y0342867D01*
X0047697Y0342932D01*
X0047555Y0343002D01*
X0047414Y0343074D01*
X0047275Y0343151D01*
X0047139Y0343230D01*
X0047004Y0343314D01*
X0046871Y0343400D01*
X0046741Y0343490D01*
X0046613Y0343583D01*
X0046487Y0343679D01*
X0046364Y0343779D01*
X0046243Y0343881D01*
X0046125Y0343986D01*
X0046010Y0344095D01*
X0045897Y0344206D01*
X0045787Y0344320D01*
X0045680Y0344437D01*
X0045576Y0344556D01*
X0045475Y0344678D01*
X0045378Y0344803D01*
X0045283Y0344930D01*
X0045192Y0345059D01*
X0045103Y0345190D01*
X0045019Y0345324D01*
X0044937Y0345460D01*
X0044859Y0345597D01*
X0044785Y0345737D01*
X0044714Y0345879D01*
X0044646Y0346022D01*
X0044582Y0346167D01*
X0044522Y0346313D01*
X0044466Y0346461D01*
X0044413Y0346610D01*
X0044364Y0346761D01*
X0044319Y0346913D01*
X0044278Y0347066D01*
X0044240Y0347219D01*
X0044207Y0347374D01*
X0044177Y0347530D01*
X0044151Y0347686D01*
X0044130Y0347843D01*
X0044112Y0348000D01*
X0044098Y0348158D01*
X0044088Y0348316D01*
X0044082Y0348474D01*
X0044080Y0348632D01*
X0309080Y0313632D02*
X0309082Y0313790D01*
X0309088Y0313948D01*
X0309098Y0314106D01*
X0309112Y0314264D01*
X0309130Y0314421D01*
X0309151Y0314578D01*
X0309177Y0314734D01*
X0309207Y0314890D01*
X0309240Y0315045D01*
X0309278Y0315198D01*
X0309319Y0315351D01*
X0309364Y0315503D01*
X0309413Y0315654D01*
X0309466Y0315803D01*
X0309522Y0315951D01*
X0309582Y0316097D01*
X0309646Y0316242D01*
X0309714Y0316385D01*
X0309785Y0316527D01*
X0309859Y0316667D01*
X0309937Y0316804D01*
X0310019Y0316940D01*
X0310103Y0317074D01*
X0310192Y0317205D01*
X0310283Y0317334D01*
X0310378Y0317461D01*
X0310475Y0317586D01*
X0310576Y0317708D01*
X0310680Y0317827D01*
X0310787Y0317944D01*
X0310897Y0318058D01*
X0311010Y0318169D01*
X0311125Y0318278D01*
X0311243Y0318383D01*
X0311364Y0318485D01*
X0311487Y0318585D01*
X0311613Y0318681D01*
X0311741Y0318774D01*
X0311871Y0318864D01*
X0312004Y0318950D01*
X0312139Y0319034D01*
X0312275Y0319113D01*
X0312414Y0319190D01*
X0312555Y0319262D01*
X0312697Y0319332D01*
X0312841Y0319397D01*
X0312987Y0319459D01*
X0313134Y0319517D01*
X0313283Y0319572D01*
X0313433Y0319623D01*
X0313584Y0319670D01*
X0313736Y0319713D01*
X0313889Y0319752D01*
X0314044Y0319788D01*
X0314199Y0319819D01*
X0314355Y0319847D01*
X0314511Y0319871D01*
X0314668Y0319891D01*
X0314826Y0319907D01*
X0314983Y0319919D01*
X0315142Y0319927D01*
X0315300Y0319931D01*
X0315458Y0319931D01*
X0315616Y0319927D01*
X0315775Y0319919D01*
X0315932Y0319907D01*
X0316090Y0319891D01*
X0316247Y0319871D01*
X0316403Y0319847D01*
X0316559Y0319819D01*
X0316714Y0319788D01*
X0316869Y0319752D01*
X0317022Y0319713D01*
X0317174Y0319670D01*
X0317325Y0319623D01*
X0317475Y0319572D01*
X0317624Y0319517D01*
X0317771Y0319459D01*
X0317917Y0319397D01*
X0318061Y0319332D01*
X0318203Y0319262D01*
X0318344Y0319190D01*
X0318483Y0319113D01*
X0318619Y0319034D01*
X0318754Y0318950D01*
X0318887Y0318864D01*
X0319017Y0318774D01*
X0319145Y0318681D01*
X0319271Y0318585D01*
X0319394Y0318485D01*
X0319515Y0318383D01*
X0319633Y0318278D01*
X0319748Y0318169D01*
X0319861Y0318058D01*
X0319971Y0317944D01*
X0320078Y0317827D01*
X0320182Y0317708D01*
X0320283Y0317586D01*
X0320380Y0317461D01*
X0320475Y0317334D01*
X0320566Y0317205D01*
X0320655Y0317074D01*
X0320739Y0316940D01*
X0320821Y0316804D01*
X0320899Y0316667D01*
X0320973Y0316527D01*
X0321044Y0316385D01*
X0321112Y0316242D01*
X0321176Y0316097D01*
X0321236Y0315951D01*
X0321292Y0315803D01*
X0321345Y0315654D01*
X0321394Y0315503D01*
X0321439Y0315351D01*
X0321480Y0315198D01*
X0321518Y0315045D01*
X0321551Y0314890D01*
X0321581Y0314734D01*
X0321607Y0314578D01*
X0321628Y0314421D01*
X0321646Y0314264D01*
X0321660Y0314106D01*
X0321670Y0313948D01*
X0321676Y0313790D01*
X0321678Y0313632D01*
X0321676Y0313474D01*
X0321670Y0313316D01*
X0321660Y0313158D01*
X0321646Y0313000D01*
X0321628Y0312843D01*
X0321607Y0312686D01*
X0321581Y0312530D01*
X0321551Y0312374D01*
X0321518Y0312219D01*
X0321480Y0312066D01*
X0321439Y0311913D01*
X0321394Y0311761D01*
X0321345Y0311610D01*
X0321292Y0311461D01*
X0321236Y0311313D01*
X0321176Y0311167D01*
X0321112Y0311022D01*
X0321044Y0310879D01*
X0320973Y0310737D01*
X0320899Y0310597D01*
X0320821Y0310460D01*
X0320739Y0310324D01*
X0320655Y0310190D01*
X0320566Y0310059D01*
X0320475Y0309930D01*
X0320380Y0309803D01*
X0320283Y0309678D01*
X0320182Y0309556D01*
X0320078Y0309437D01*
X0319971Y0309320D01*
X0319861Y0309206D01*
X0319748Y0309095D01*
X0319633Y0308986D01*
X0319515Y0308881D01*
X0319394Y0308779D01*
X0319271Y0308679D01*
X0319145Y0308583D01*
X0319017Y0308490D01*
X0318887Y0308400D01*
X0318754Y0308314D01*
X0318619Y0308230D01*
X0318483Y0308151D01*
X0318344Y0308074D01*
X0318203Y0308002D01*
X0318061Y0307932D01*
X0317917Y0307867D01*
X0317771Y0307805D01*
X0317624Y0307747D01*
X0317475Y0307692D01*
X0317325Y0307641D01*
X0317174Y0307594D01*
X0317022Y0307551D01*
X0316869Y0307512D01*
X0316714Y0307476D01*
X0316559Y0307445D01*
X0316403Y0307417D01*
X0316247Y0307393D01*
X0316090Y0307373D01*
X0315932Y0307357D01*
X0315775Y0307345D01*
X0315616Y0307337D01*
X0315458Y0307333D01*
X0315300Y0307333D01*
X0315142Y0307337D01*
X0314983Y0307345D01*
X0314826Y0307357D01*
X0314668Y0307373D01*
X0314511Y0307393D01*
X0314355Y0307417D01*
X0314199Y0307445D01*
X0314044Y0307476D01*
X0313889Y0307512D01*
X0313736Y0307551D01*
X0313584Y0307594D01*
X0313433Y0307641D01*
X0313283Y0307692D01*
X0313134Y0307747D01*
X0312987Y0307805D01*
X0312841Y0307867D01*
X0312697Y0307932D01*
X0312555Y0308002D01*
X0312414Y0308074D01*
X0312275Y0308151D01*
X0312139Y0308230D01*
X0312004Y0308314D01*
X0311871Y0308400D01*
X0311741Y0308490D01*
X0311613Y0308583D01*
X0311487Y0308679D01*
X0311364Y0308779D01*
X0311243Y0308881D01*
X0311125Y0308986D01*
X0311010Y0309095D01*
X0310897Y0309206D01*
X0310787Y0309320D01*
X0310680Y0309437D01*
X0310576Y0309556D01*
X0310475Y0309678D01*
X0310378Y0309803D01*
X0310283Y0309930D01*
X0310192Y0310059D01*
X0310103Y0310190D01*
X0310019Y0310324D01*
X0309937Y0310460D01*
X0309859Y0310597D01*
X0309785Y0310737D01*
X0309714Y0310879D01*
X0309646Y0311022D01*
X0309582Y0311167D01*
X0309522Y0311313D01*
X0309466Y0311461D01*
X0309413Y0311610D01*
X0309364Y0311761D01*
X0309319Y0311913D01*
X0309278Y0312066D01*
X0309240Y0312219D01*
X0309207Y0312374D01*
X0309177Y0312530D01*
X0309151Y0312686D01*
X0309130Y0312843D01*
X0309112Y0313000D01*
X0309098Y0313158D01*
X0309088Y0313316D01*
X0309082Y0313474D01*
X0309080Y0313632D01*
X0311479Y0253632D02*
X0311481Y0253793D01*
X0311487Y0253953D01*
X0311497Y0254114D01*
X0311511Y0254274D01*
X0311529Y0254434D01*
X0311550Y0254593D01*
X0311576Y0254752D01*
X0311606Y0254910D01*
X0311639Y0255067D01*
X0311677Y0255224D01*
X0311718Y0255379D01*
X0311763Y0255533D01*
X0311812Y0255686D01*
X0311865Y0255838D01*
X0311921Y0255989D01*
X0311982Y0256138D01*
X0312045Y0256286D01*
X0312113Y0256432D01*
X0312184Y0256576D01*
X0312258Y0256718D01*
X0312336Y0256859D01*
X0312418Y0256997D01*
X0312503Y0257134D01*
X0312591Y0257268D01*
X0312683Y0257400D01*
X0312778Y0257530D01*
X0312876Y0257658D01*
X0312977Y0257783D01*
X0313081Y0257905D01*
X0313188Y0258025D01*
X0313298Y0258142D01*
X0313411Y0258257D01*
X0313527Y0258368D01*
X0313646Y0258477D01*
X0313767Y0258582D01*
X0313891Y0258685D01*
X0314017Y0258785D01*
X0314145Y0258881D01*
X0314276Y0258974D01*
X0314410Y0259064D01*
X0314545Y0259151D01*
X0314683Y0259234D01*
X0314822Y0259314D01*
X0314964Y0259390D01*
X0315107Y0259463D01*
X0315252Y0259532D01*
X0315399Y0259598D01*
X0315547Y0259660D01*
X0315697Y0259718D01*
X0315848Y0259773D01*
X0316001Y0259824D01*
X0316155Y0259871D01*
X0316310Y0259914D01*
X0316466Y0259953D01*
X0316622Y0259989D01*
X0316780Y0260020D01*
X0316938Y0260048D01*
X0317097Y0260072D01*
X0317257Y0260092D01*
X0317417Y0260108D01*
X0317577Y0260120D01*
X0317738Y0260128D01*
X0317899Y0260132D01*
X0318059Y0260132D01*
X0318220Y0260128D01*
X0318381Y0260120D01*
X0318541Y0260108D01*
X0318701Y0260092D01*
X0318861Y0260072D01*
X0319020Y0260048D01*
X0319178Y0260020D01*
X0319336Y0259989D01*
X0319492Y0259953D01*
X0319648Y0259914D01*
X0319803Y0259871D01*
X0319957Y0259824D01*
X0320110Y0259773D01*
X0320261Y0259718D01*
X0320411Y0259660D01*
X0320559Y0259598D01*
X0320706Y0259532D01*
X0320851Y0259463D01*
X0320994Y0259390D01*
X0321136Y0259314D01*
X0321275Y0259234D01*
X0321413Y0259151D01*
X0321548Y0259064D01*
X0321682Y0258974D01*
X0321813Y0258881D01*
X0321941Y0258785D01*
X0322067Y0258685D01*
X0322191Y0258582D01*
X0322312Y0258477D01*
X0322431Y0258368D01*
X0322547Y0258257D01*
X0322660Y0258142D01*
X0322770Y0258025D01*
X0322877Y0257905D01*
X0322981Y0257783D01*
X0323082Y0257658D01*
X0323180Y0257530D01*
X0323275Y0257400D01*
X0323367Y0257268D01*
X0323455Y0257134D01*
X0323540Y0256997D01*
X0323622Y0256859D01*
X0323700Y0256718D01*
X0323774Y0256576D01*
X0323845Y0256432D01*
X0323913Y0256286D01*
X0323976Y0256138D01*
X0324037Y0255989D01*
X0324093Y0255838D01*
X0324146Y0255686D01*
X0324195Y0255533D01*
X0324240Y0255379D01*
X0324281Y0255224D01*
X0324319Y0255067D01*
X0324352Y0254910D01*
X0324382Y0254752D01*
X0324408Y0254593D01*
X0324429Y0254434D01*
X0324447Y0254274D01*
X0324461Y0254114D01*
X0324471Y0253953D01*
X0324477Y0253793D01*
X0324479Y0253632D01*
X0324477Y0253471D01*
X0324471Y0253311D01*
X0324461Y0253150D01*
X0324447Y0252990D01*
X0324429Y0252830D01*
X0324408Y0252671D01*
X0324382Y0252512D01*
X0324352Y0252354D01*
X0324319Y0252197D01*
X0324281Y0252040D01*
X0324240Y0251885D01*
X0324195Y0251731D01*
X0324146Y0251578D01*
X0324093Y0251426D01*
X0324037Y0251275D01*
X0323976Y0251126D01*
X0323913Y0250978D01*
X0323845Y0250832D01*
X0323774Y0250688D01*
X0323700Y0250546D01*
X0323622Y0250405D01*
X0323540Y0250267D01*
X0323455Y0250130D01*
X0323367Y0249996D01*
X0323275Y0249864D01*
X0323180Y0249734D01*
X0323082Y0249606D01*
X0322981Y0249481D01*
X0322877Y0249359D01*
X0322770Y0249239D01*
X0322660Y0249122D01*
X0322547Y0249007D01*
X0322431Y0248896D01*
X0322312Y0248787D01*
X0322191Y0248682D01*
X0322067Y0248579D01*
X0321941Y0248479D01*
X0321813Y0248383D01*
X0321682Y0248290D01*
X0321548Y0248200D01*
X0321413Y0248113D01*
X0321275Y0248030D01*
X0321136Y0247950D01*
X0320994Y0247874D01*
X0320851Y0247801D01*
X0320706Y0247732D01*
X0320559Y0247666D01*
X0320411Y0247604D01*
X0320261Y0247546D01*
X0320110Y0247491D01*
X0319957Y0247440D01*
X0319803Y0247393D01*
X0319648Y0247350D01*
X0319492Y0247311D01*
X0319336Y0247275D01*
X0319178Y0247244D01*
X0319020Y0247216D01*
X0318861Y0247192D01*
X0318701Y0247172D01*
X0318541Y0247156D01*
X0318381Y0247144D01*
X0318220Y0247136D01*
X0318059Y0247132D01*
X0317899Y0247132D01*
X0317738Y0247136D01*
X0317577Y0247144D01*
X0317417Y0247156D01*
X0317257Y0247172D01*
X0317097Y0247192D01*
X0316938Y0247216D01*
X0316780Y0247244D01*
X0316622Y0247275D01*
X0316466Y0247311D01*
X0316310Y0247350D01*
X0316155Y0247393D01*
X0316001Y0247440D01*
X0315848Y0247491D01*
X0315697Y0247546D01*
X0315547Y0247604D01*
X0315399Y0247666D01*
X0315252Y0247732D01*
X0315107Y0247801D01*
X0314964Y0247874D01*
X0314822Y0247950D01*
X0314683Y0248030D01*
X0314545Y0248113D01*
X0314410Y0248200D01*
X0314276Y0248290D01*
X0314145Y0248383D01*
X0314017Y0248479D01*
X0313891Y0248579D01*
X0313767Y0248682D01*
X0313646Y0248787D01*
X0313527Y0248896D01*
X0313411Y0249007D01*
X0313298Y0249122D01*
X0313188Y0249239D01*
X0313081Y0249359D01*
X0312977Y0249481D01*
X0312876Y0249606D01*
X0312778Y0249734D01*
X0312683Y0249864D01*
X0312591Y0249996D01*
X0312503Y0250130D01*
X0312418Y0250267D01*
X0312336Y0250405D01*
X0312258Y0250546D01*
X0312184Y0250688D01*
X0312113Y0250832D01*
X0312045Y0250978D01*
X0311982Y0251126D01*
X0311921Y0251275D01*
X0311865Y0251426D01*
X0311812Y0251578D01*
X0311763Y0251731D01*
X0311718Y0251885D01*
X0311677Y0252040D01*
X0311639Y0252197D01*
X0311606Y0252354D01*
X0311576Y0252512D01*
X0311550Y0252671D01*
X0311529Y0252830D01*
X0311511Y0252990D01*
X0311497Y0253150D01*
X0311487Y0253311D01*
X0311481Y0253471D01*
X0311479Y0253632D01*
X0319080Y0028632D02*
X0319082Y0028790D01*
X0319088Y0028948D01*
X0319098Y0029106D01*
X0319112Y0029264D01*
X0319130Y0029421D01*
X0319151Y0029578D01*
X0319177Y0029734D01*
X0319207Y0029890D01*
X0319240Y0030045D01*
X0319278Y0030198D01*
X0319319Y0030351D01*
X0319364Y0030503D01*
X0319413Y0030654D01*
X0319466Y0030803D01*
X0319522Y0030951D01*
X0319582Y0031097D01*
X0319646Y0031242D01*
X0319714Y0031385D01*
X0319785Y0031527D01*
X0319859Y0031667D01*
X0319937Y0031804D01*
X0320019Y0031940D01*
X0320103Y0032074D01*
X0320192Y0032205D01*
X0320283Y0032334D01*
X0320378Y0032461D01*
X0320475Y0032586D01*
X0320576Y0032708D01*
X0320680Y0032827D01*
X0320787Y0032944D01*
X0320897Y0033058D01*
X0321010Y0033169D01*
X0321125Y0033278D01*
X0321243Y0033383D01*
X0321364Y0033485D01*
X0321487Y0033585D01*
X0321613Y0033681D01*
X0321741Y0033774D01*
X0321871Y0033864D01*
X0322004Y0033950D01*
X0322139Y0034034D01*
X0322275Y0034113D01*
X0322414Y0034190D01*
X0322555Y0034262D01*
X0322697Y0034332D01*
X0322841Y0034397D01*
X0322987Y0034459D01*
X0323134Y0034517D01*
X0323283Y0034572D01*
X0323433Y0034623D01*
X0323584Y0034670D01*
X0323736Y0034713D01*
X0323889Y0034752D01*
X0324044Y0034788D01*
X0324199Y0034819D01*
X0324355Y0034847D01*
X0324511Y0034871D01*
X0324668Y0034891D01*
X0324826Y0034907D01*
X0324983Y0034919D01*
X0325142Y0034927D01*
X0325300Y0034931D01*
X0325458Y0034931D01*
X0325616Y0034927D01*
X0325775Y0034919D01*
X0325932Y0034907D01*
X0326090Y0034891D01*
X0326247Y0034871D01*
X0326403Y0034847D01*
X0326559Y0034819D01*
X0326714Y0034788D01*
X0326869Y0034752D01*
X0327022Y0034713D01*
X0327174Y0034670D01*
X0327325Y0034623D01*
X0327475Y0034572D01*
X0327624Y0034517D01*
X0327771Y0034459D01*
X0327917Y0034397D01*
X0328061Y0034332D01*
X0328203Y0034262D01*
X0328344Y0034190D01*
X0328483Y0034113D01*
X0328619Y0034034D01*
X0328754Y0033950D01*
X0328887Y0033864D01*
X0329017Y0033774D01*
X0329145Y0033681D01*
X0329271Y0033585D01*
X0329394Y0033485D01*
X0329515Y0033383D01*
X0329633Y0033278D01*
X0329748Y0033169D01*
X0329861Y0033058D01*
X0329971Y0032944D01*
X0330078Y0032827D01*
X0330182Y0032708D01*
X0330283Y0032586D01*
X0330380Y0032461D01*
X0330475Y0032334D01*
X0330566Y0032205D01*
X0330655Y0032074D01*
X0330739Y0031940D01*
X0330821Y0031804D01*
X0330899Y0031667D01*
X0330973Y0031527D01*
X0331044Y0031385D01*
X0331112Y0031242D01*
X0331176Y0031097D01*
X0331236Y0030951D01*
X0331292Y0030803D01*
X0331345Y0030654D01*
X0331394Y0030503D01*
X0331439Y0030351D01*
X0331480Y0030198D01*
X0331518Y0030045D01*
X0331551Y0029890D01*
X0331581Y0029734D01*
X0331607Y0029578D01*
X0331628Y0029421D01*
X0331646Y0029264D01*
X0331660Y0029106D01*
X0331670Y0028948D01*
X0331676Y0028790D01*
X0331678Y0028632D01*
X0331676Y0028474D01*
X0331670Y0028316D01*
X0331660Y0028158D01*
X0331646Y0028000D01*
X0331628Y0027843D01*
X0331607Y0027686D01*
X0331581Y0027530D01*
X0331551Y0027374D01*
X0331518Y0027219D01*
X0331480Y0027066D01*
X0331439Y0026913D01*
X0331394Y0026761D01*
X0331345Y0026610D01*
X0331292Y0026461D01*
X0331236Y0026313D01*
X0331176Y0026167D01*
X0331112Y0026022D01*
X0331044Y0025879D01*
X0330973Y0025737D01*
X0330899Y0025597D01*
X0330821Y0025460D01*
X0330739Y0025324D01*
X0330655Y0025190D01*
X0330566Y0025059D01*
X0330475Y0024930D01*
X0330380Y0024803D01*
X0330283Y0024678D01*
X0330182Y0024556D01*
X0330078Y0024437D01*
X0329971Y0024320D01*
X0329861Y0024206D01*
X0329748Y0024095D01*
X0329633Y0023986D01*
X0329515Y0023881D01*
X0329394Y0023779D01*
X0329271Y0023679D01*
X0329145Y0023583D01*
X0329017Y0023490D01*
X0328887Y0023400D01*
X0328754Y0023314D01*
X0328619Y0023230D01*
X0328483Y0023151D01*
X0328344Y0023074D01*
X0328203Y0023002D01*
X0328061Y0022932D01*
X0327917Y0022867D01*
X0327771Y0022805D01*
X0327624Y0022747D01*
X0327475Y0022692D01*
X0327325Y0022641D01*
X0327174Y0022594D01*
X0327022Y0022551D01*
X0326869Y0022512D01*
X0326714Y0022476D01*
X0326559Y0022445D01*
X0326403Y0022417D01*
X0326247Y0022393D01*
X0326090Y0022373D01*
X0325932Y0022357D01*
X0325775Y0022345D01*
X0325616Y0022337D01*
X0325458Y0022333D01*
X0325300Y0022333D01*
X0325142Y0022337D01*
X0324983Y0022345D01*
X0324826Y0022357D01*
X0324668Y0022373D01*
X0324511Y0022393D01*
X0324355Y0022417D01*
X0324199Y0022445D01*
X0324044Y0022476D01*
X0323889Y0022512D01*
X0323736Y0022551D01*
X0323584Y0022594D01*
X0323433Y0022641D01*
X0323283Y0022692D01*
X0323134Y0022747D01*
X0322987Y0022805D01*
X0322841Y0022867D01*
X0322697Y0022932D01*
X0322555Y0023002D01*
X0322414Y0023074D01*
X0322275Y0023151D01*
X0322139Y0023230D01*
X0322004Y0023314D01*
X0321871Y0023400D01*
X0321741Y0023490D01*
X0321613Y0023583D01*
X0321487Y0023679D01*
X0321364Y0023779D01*
X0321243Y0023881D01*
X0321125Y0023986D01*
X0321010Y0024095D01*
X0320897Y0024206D01*
X0320787Y0024320D01*
X0320680Y0024437D01*
X0320576Y0024556D01*
X0320475Y0024678D01*
X0320378Y0024803D01*
X0320283Y0024930D01*
X0320192Y0025059D01*
X0320103Y0025190D01*
X0320019Y0025324D01*
X0319937Y0025460D01*
X0319859Y0025597D01*
X0319785Y0025737D01*
X0319714Y0025879D01*
X0319646Y0026022D01*
X0319582Y0026167D01*
X0319522Y0026313D01*
X0319466Y0026461D01*
X0319413Y0026610D01*
X0319364Y0026761D01*
X0319319Y0026913D01*
X0319278Y0027066D01*
X0319240Y0027219D01*
X0319207Y0027374D01*
X0319177Y0027530D01*
X0319151Y0027686D01*
X0319130Y0027843D01*
X0319112Y0028000D01*
X0319098Y0028158D01*
X0319088Y0028316D01*
X0319082Y0028474D01*
X0319080Y0028632D01*
D12*
X0290379Y0073632D02*
X0290379Y0078632D01*
X0285379Y0078632D01*
X0285379Y0073632D01*
X0285379Y0078632D02*
X0275379Y0078632D01*
X0275196Y0078695D01*
X0275015Y0078763D01*
X0274835Y0078835D01*
X0274657Y0078912D01*
X0274481Y0078993D01*
X0274308Y0079079D01*
X0274136Y0079168D01*
X0273967Y0079262D01*
X0273800Y0079360D01*
X0273635Y0079462D01*
X0273473Y0079568D01*
X0273313Y0079678D01*
X0273157Y0079791D01*
X0273003Y0079909D01*
X0272852Y0080030D01*
X0272704Y0080155D01*
X0272559Y0080284D01*
X0272418Y0080416D01*
X0272279Y0080551D01*
X0272144Y0080690D01*
X0272013Y0080832D01*
X0271885Y0080977D01*
X0271760Y0081125D01*
X0271639Y0081277D01*
X0271522Y0081431D01*
X0271409Y0081588D01*
X0271300Y0081748D01*
X0271194Y0081910D01*
X0271093Y0082075D01*
X0270996Y0082243D01*
X0270903Y0082412D01*
X0270814Y0082584D01*
X0270729Y0082759D01*
X0270648Y0082935D01*
X0270572Y0083113D01*
X0270501Y0083292D01*
X0270433Y0083474D01*
X0270370Y0083657D01*
X0270312Y0083842D01*
X0270258Y0084028D01*
X0270209Y0084215D01*
X0270164Y0084403D01*
X0270124Y0084593D01*
X0270089Y0084783D01*
X0270058Y0084974D01*
X0270032Y0085166D01*
X0270011Y0085359D01*
X0269994Y0085552D01*
X0269982Y0085745D01*
X0269975Y0085938D01*
X0269973Y0086132D01*
X0269975Y0086326D01*
X0269982Y0086519D01*
X0269994Y0086712D01*
X0270011Y0086905D01*
X0270032Y0087098D01*
X0270058Y0087290D01*
X0270089Y0087481D01*
X0270124Y0087671D01*
X0270164Y0087861D01*
X0270209Y0088049D01*
X0270258Y0088236D01*
X0270312Y0088422D01*
X0270370Y0088607D01*
X0270433Y0088790D01*
X0270501Y0088972D01*
X0270572Y0089151D01*
X0270648Y0089329D01*
X0270729Y0089505D01*
X0270814Y0089680D01*
X0270903Y0089852D01*
X0270996Y0090021D01*
X0271093Y0090189D01*
X0271194Y0090354D01*
X0271300Y0090516D01*
X0271409Y0090676D01*
X0271522Y0090833D01*
X0271639Y0090987D01*
X0271760Y0091139D01*
X0271885Y0091287D01*
X0272013Y0091432D01*
X0272144Y0091574D01*
X0272279Y0091713D01*
X0272418Y0091848D01*
X0272559Y0091980D01*
X0272704Y0092109D01*
X0272852Y0092234D01*
X0273003Y0092355D01*
X0273157Y0092473D01*
X0273313Y0092586D01*
X0273473Y0092696D01*
X0273635Y0092802D01*
X0273800Y0092904D01*
X0273967Y0093002D01*
X0274136Y0093096D01*
X0274308Y0093185D01*
X0274481Y0093271D01*
X0274657Y0093352D01*
X0274835Y0093429D01*
X0275015Y0093501D01*
X0275196Y0093569D01*
X0275379Y0093632D01*
X0280379Y0093632D01*
X0280379Y0088632D01*
X0280379Y0093632D02*
X0295379Y0093632D01*
X0295379Y0088632D01*
X0300379Y0093632D02*
X0300562Y0093569D01*
X0300743Y0093501D01*
X0300923Y0093429D01*
X0301101Y0093352D01*
X0301277Y0093271D01*
X0301450Y0093185D01*
X0301622Y0093096D01*
X0301791Y0093002D01*
X0301958Y0092904D01*
X0302123Y0092802D01*
X0302285Y0092696D01*
X0302445Y0092586D01*
X0302601Y0092473D01*
X0302755Y0092355D01*
X0302906Y0092234D01*
X0303054Y0092109D01*
X0303199Y0091980D01*
X0303340Y0091848D01*
X0303479Y0091713D01*
X0303614Y0091574D01*
X0303745Y0091432D01*
X0303873Y0091287D01*
X0303998Y0091139D01*
X0304119Y0090987D01*
X0304236Y0090833D01*
X0304349Y0090676D01*
X0304458Y0090516D01*
X0304564Y0090354D01*
X0304665Y0090189D01*
X0304762Y0090021D01*
X0304855Y0089852D01*
X0304944Y0089680D01*
X0305029Y0089505D01*
X0305110Y0089329D01*
X0305186Y0089151D01*
X0305257Y0088972D01*
X0305325Y0088790D01*
X0305388Y0088607D01*
X0305446Y0088422D01*
X0305500Y0088236D01*
X0305549Y0088049D01*
X0305594Y0087861D01*
X0305634Y0087671D01*
X0305669Y0087481D01*
X0305700Y0087290D01*
X0305726Y0087098D01*
X0305747Y0086905D01*
X0305764Y0086712D01*
X0305776Y0086519D01*
X0305783Y0086326D01*
X0305785Y0086132D01*
X0305783Y0085938D01*
X0305776Y0085745D01*
X0305764Y0085552D01*
X0305747Y0085359D01*
X0305726Y0085166D01*
X0305700Y0084974D01*
X0305669Y0084783D01*
X0305634Y0084593D01*
X0305594Y0084403D01*
X0305549Y0084215D01*
X0305500Y0084028D01*
X0305446Y0083842D01*
X0305388Y0083657D01*
X0305325Y0083474D01*
X0305257Y0083292D01*
X0305186Y0083113D01*
X0305110Y0082935D01*
X0305029Y0082759D01*
X0304944Y0082584D01*
X0304855Y0082412D01*
X0304762Y0082243D01*
X0304665Y0082075D01*
X0304564Y0081910D01*
X0304458Y0081748D01*
X0304349Y0081588D01*
X0304236Y0081431D01*
X0304119Y0081277D01*
X0303998Y0081125D01*
X0303873Y0080977D01*
X0303745Y0080832D01*
X0303614Y0080690D01*
X0303479Y0080551D01*
X0303340Y0080416D01*
X0303199Y0080284D01*
X0303054Y0080155D01*
X0302906Y0080030D01*
X0302755Y0079909D01*
X0302601Y0079791D01*
X0302445Y0079678D01*
X0302285Y0079568D01*
X0302123Y0079462D01*
X0301958Y0079360D01*
X0301791Y0079262D01*
X0301622Y0079168D01*
X0301450Y0079079D01*
X0301277Y0078993D01*
X0301101Y0078912D01*
X0300923Y0078835D01*
X0300743Y0078763D01*
X0300562Y0078695D01*
X0300379Y0078632D01*
X0290379Y0078632D01*
X0295379Y0093632D02*
X0300379Y0093632D01*
X0275379Y0093632D01*
X0285379Y0099632D02*
X0285379Y0104513D01*
X0286192Y0106611D01*
X0286192Y0108632D01*
X0289379Y0108632D01*
X0290122Y0104659D01*
X0290379Y0104243D01*
X0290379Y0099632D01*
X0285379Y0099632D01*
X0285379Y0103614D02*
X0290379Y0103614D01*
X0289383Y0108613D02*
X0286192Y0108613D01*
X0270379Y0108632D02*
X0270381Y0108773D01*
X0270387Y0108914D01*
X0270397Y0109054D01*
X0270411Y0109194D01*
X0270429Y0109334D01*
X0270450Y0109473D01*
X0270476Y0109612D01*
X0270505Y0109750D01*
X0270539Y0109886D01*
X0270576Y0110022D01*
X0270617Y0110157D01*
X0270662Y0110291D01*
X0270711Y0110423D01*
X0270763Y0110554D01*
X0270819Y0110683D01*
X0270879Y0110810D01*
X0270942Y0110936D01*
X0271008Y0111060D01*
X0271079Y0111183D01*
X0271152Y0111303D01*
X0271229Y0111421D01*
X0271309Y0111537D01*
X0271393Y0111650D01*
X0271479Y0111761D01*
X0271569Y0111870D01*
X0271662Y0111976D01*
X0271757Y0112079D01*
X0271856Y0112180D01*
X0271957Y0112278D01*
X0272061Y0112373D01*
X0272168Y0112465D01*
X0272277Y0112554D01*
X0272389Y0112639D01*
X0272503Y0112722D01*
X0272619Y0112802D01*
X0272738Y0112878D01*
X0272859Y0112950D01*
X0272981Y0113020D01*
X0273106Y0113085D01*
X0273232Y0113148D01*
X0273360Y0113206D01*
X0273490Y0113261D01*
X0273621Y0113313D01*
X0273754Y0113360D01*
X0273888Y0113404D01*
X0274023Y0113445D01*
X0274159Y0113481D01*
X0274296Y0113513D01*
X0274434Y0113542D01*
X0274572Y0113567D01*
X0274712Y0113587D01*
X0274852Y0113604D01*
X0274992Y0113617D01*
X0275133Y0113626D01*
X0275273Y0113631D01*
X0275414Y0113632D01*
X0275555Y0113629D01*
X0275696Y0113622D01*
X0275836Y0113611D01*
X0275976Y0113596D01*
X0276116Y0113577D01*
X0276255Y0113555D01*
X0276393Y0113528D01*
X0276531Y0113498D01*
X0276667Y0113463D01*
X0276803Y0113425D01*
X0276937Y0113383D01*
X0277071Y0113337D01*
X0277203Y0113288D01*
X0277333Y0113234D01*
X0277462Y0113177D01*
X0277589Y0113117D01*
X0277715Y0113053D01*
X0277838Y0112985D01*
X0277960Y0112914D01*
X0278080Y0112840D01*
X0278197Y0112762D01*
X0278312Y0112681D01*
X0278425Y0112597D01*
X0278536Y0112510D01*
X0278644Y0112419D01*
X0278749Y0112326D01*
X0278852Y0112229D01*
X0278952Y0112130D01*
X0279049Y0112028D01*
X0279143Y0111923D01*
X0279234Y0111816D01*
X0279322Y0111706D01*
X0279407Y0111594D01*
X0279489Y0111479D01*
X0279568Y0111362D01*
X0279643Y0111243D01*
X0279715Y0111122D01*
X0279783Y0110999D01*
X0279848Y0110874D01*
X0279910Y0110747D01*
X0279967Y0110618D01*
X0280022Y0110488D01*
X0280072Y0110357D01*
X0280119Y0110224D01*
X0280162Y0110090D01*
X0280201Y0109954D01*
X0280236Y0109818D01*
X0280268Y0109681D01*
X0280295Y0109543D01*
X0280319Y0109404D01*
X0280339Y0109264D01*
X0280355Y0109124D01*
X0280367Y0108984D01*
X0280375Y0108843D01*
X0280379Y0108702D01*
X0280379Y0108562D01*
X0280375Y0108421D01*
X0280367Y0108280D01*
X0280355Y0108140D01*
X0280339Y0108000D01*
X0280319Y0107860D01*
X0280295Y0107721D01*
X0280268Y0107583D01*
X0280236Y0107446D01*
X0280201Y0107310D01*
X0280162Y0107174D01*
X0280119Y0107040D01*
X0280072Y0106907D01*
X0280022Y0106776D01*
X0279967Y0106646D01*
X0279910Y0106517D01*
X0279848Y0106390D01*
X0279783Y0106265D01*
X0279715Y0106142D01*
X0279643Y0106021D01*
X0279568Y0105902D01*
X0279489Y0105785D01*
X0279407Y0105670D01*
X0279322Y0105558D01*
X0279234Y0105448D01*
X0279143Y0105341D01*
X0279049Y0105236D01*
X0278952Y0105134D01*
X0278852Y0105035D01*
X0278749Y0104938D01*
X0278644Y0104845D01*
X0278536Y0104754D01*
X0278425Y0104667D01*
X0278312Y0104583D01*
X0278197Y0104502D01*
X0278080Y0104424D01*
X0277960Y0104350D01*
X0277838Y0104279D01*
X0277715Y0104211D01*
X0277589Y0104147D01*
X0277462Y0104087D01*
X0277333Y0104030D01*
X0277203Y0103976D01*
X0277071Y0103927D01*
X0276937Y0103881D01*
X0276803Y0103839D01*
X0276667Y0103801D01*
X0276531Y0103766D01*
X0276393Y0103736D01*
X0276255Y0103709D01*
X0276116Y0103687D01*
X0275976Y0103668D01*
X0275836Y0103653D01*
X0275696Y0103642D01*
X0275555Y0103635D01*
X0275414Y0103632D01*
X0275273Y0103633D01*
X0275133Y0103638D01*
X0274992Y0103647D01*
X0274852Y0103660D01*
X0274712Y0103677D01*
X0274572Y0103697D01*
X0274434Y0103722D01*
X0274296Y0103751D01*
X0274159Y0103783D01*
X0274023Y0103819D01*
X0273888Y0103860D01*
X0273754Y0103904D01*
X0273621Y0103951D01*
X0273490Y0104003D01*
X0273360Y0104058D01*
X0273232Y0104116D01*
X0273106Y0104179D01*
X0272981Y0104244D01*
X0272859Y0104314D01*
X0272738Y0104386D01*
X0272619Y0104462D01*
X0272503Y0104542D01*
X0272389Y0104625D01*
X0272277Y0104710D01*
X0272168Y0104799D01*
X0272061Y0104891D01*
X0271957Y0104986D01*
X0271856Y0105084D01*
X0271757Y0105185D01*
X0271662Y0105288D01*
X0271569Y0105394D01*
X0271479Y0105503D01*
X0271393Y0105614D01*
X0271309Y0105727D01*
X0271229Y0105843D01*
X0271152Y0105961D01*
X0271079Y0106081D01*
X0271008Y0106204D01*
X0270942Y0106328D01*
X0270879Y0106454D01*
X0270819Y0106581D01*
X0270763Y0106710D01*
X0270711Y0106841D01*
X0270662Y0106973D01*
X0270617Y0107107D01*
X0270576Y0107242D01*
X0270539Y0107378D01*
X0270505Y0107514D01*
X0270476Y0107652D01*
X0270450Y0107791D01*
X0270429Y0107930D01*
X0270411Y0108070D01*
X0270397Y0108210D01*
X0270387Y0108350D01*
X0270381Y0108491D01*
X0270379Y0108632D01*
X0295379Y0108632D02*
X0295381Y0108773D01*
X0295387Y0108914D01*
X0295397Y0109054D01*
X0295411Y0109194D01*
X0295429Y0109334D01*
X0295450Y0109473D01*
X0295476Y0109612D01*
X0295505Y0109750D01*
X0295539Y0109886D01*
X0295576Y0110022D01*
X0295617Y0110157D01*
X0295662Y0110291D01*
X0295711Y0110423D01*
X0295763Y0110554D01*
X0295819Y0110683D01*
X0295879Y0110810D01*
X0295942Y0110936D01*
X0296008Y0111060D01*
X0296079Y0111183D01*
X0296152Y0111303D01*
X0296229Y0111421D01*
X0296309Y0111537D01*
X0296393Y0111650D01*
X0296479Y0111761D01*
X0296569Y0111870D01*
X0296662Y0111976D01*
X0296757Y0112079D01*
X0296856Y0112180D01*
X0296957Y0112278D01*
X0297061Y0112373D01*
X0297168Y0112465D01*
X0297277Y0112554D01*
X0297389Y0112639D01*
X0297503Y0112722D01*
X0297619Y0112802D01*
X0297738Y0112878D01*
X0297859Y0112950D01*
X0297981Y0113020D01*
X0298106Y0113085D01*
X0298232Y0113148D01*
X0298360Y0113206D01*
X0298490Y0113261D01*
X0298621Y0113313D01*
X0298754Y0113360D01*
X0298888Y0113404D01*
X0299023Y0113445D01*
X0299159Y0113481D01*
X0299296Y0113513D01*
X0299434Y0113542D01*
X0299572Y0113567D01*
X0299712Y0113587D01*
X0299852Y0113604D01*
X0299992Y0113617D01*
X0300133Y0113626D01*
X0300273Y0113631D01*
X0300414Y0113632D01*
X0300555Y0113629D01*
X0300696Y0113622D01*
X0300836Y0113611D01*
X0300976Y0113596D01*
X0301116Y0113577D01*
X0301255Y0113555D01*
X0301393Y0113528D01*
X0301531Y0113498D01*
X0301667Y0113463D01*
X0301803Y0113425D01*
X0301937Y0113383D01*
X0302071Y0113337D01*
X0302203Y0113288D01*
X0302333Y0113234D01*
X0302462Y0113177D01*
X0302589Y0113117D01*
X0302715Y0113053D01*
X0302838Y0112985D01*
X0302960Y0112914D01*
X0303080Y0112840D01*
X0303197Y0112762D01*
X0303312Y0112681D01*
X0303425Y0112597D01*
X0303536Y0112510D01*
X0303644Y0112419D01*
X0303749Y0112326D01*
X0303852Y0112229D01*
X0303952Y0112130D01*
X0304049Y0112028D01*
X0304143Y0111923D01*
X0304234Y0111816D01*
X0304322Y0111706D01*
X0304407Y0111594D01*
X0304489Y0111479D01*
X0304568Y0111362D01*
X0304643Y0111243D01*
X0304715Y0111122D01*
X0304783Y0110999D01*
X0304848Y0110874D01*
X0304910Y0110747D01*
X0304967Y0110618D01*
X0305022Y0110488D01*
X0305072Y0110357D01*
X0305119Y0110224D01*
X0305162Y0110090D01*
X0305201Y0109954D01*
X0305236Y0109818D01*
X0305268Y0109681D01*
X0305295Y0109543D01*
X0305319Y0109404D01*
X0305339Y0109264D01*
X0305355Y0109124D01*
X0305367Y0108984D01*
X0305375Y0108843D01*
X0305379Y0108702D01*
X0305379Y0108562D01*
X0305375Y0108421D01*
X0305367Y0108280D01*
X0305355Y0108140D01*
X0305339Y0108000D01*
X0305319Y0107860D01*
X0305295Y0107721D01*
X0305268Y0107583D01*
X0305236Y0107446D01*
X0305201Y0107310D01*
X0305162Y0107174D01*
X0305119Y0107040D01*
X0305072Y0106907D01*
X0305022Y0106776D01*
X0304967Y0106646D01*
X0304910Y0106517D01*
X0304848Y0106390D01*
X0304783Y0106265D01*
X0304715Y0106142D01*
X0304643Y0106021D01*
X0304568Y0105902D01*
X0304489Y0105785D01*
X0304407Y0105670D01*
X0304322Y0105558D01*
X0304234Y0105448D01*
X0304143Y0105341D01*
X0304049Y0105236D01*
X0303952Y0105134D01*
X0303852Y0105035D01*
X0303749Y0104938D01*
X0303644Y0104845D01*
X0303536Y0104754D01*
X0303425Y0104667D01*
X0303312Y0104583D01*
X0303197Y0104502D01*
X0303080Y0104424D01*
X0302960Y0104350D01*
X0302838Y0104279D01*
X0302715Y0104211D01*
X0302589Y0104147D01*
X0302462Y0104087D01*
X0302333Y0104030D01*
X0302203Y0103976D01*
X0302071Y0103927D01*
X0301937Y0103881D01*
X0301803Y0103839D01*
X0301667Y0103801D01*
X0301531Y0103766D01*
X0301393Y0103736D01*
X0301255Y0103709D01*
X0301116Y0103687D01*
X0300976Y0103668D01*
X0300836Y0103653D01*
X0300696Y0103642D01*
X0300555Y0103635D01*
X0300414Y0103632D01*
X0300273Y0103633D01*
X0300133Y0103638D01*
X0299992Y0103647D01*
X0299852Y0103660D01*
X0299712Y0103677D01*
X0299572Y0103697D01*
X0299434Y0103722D01*
X0299296Y0103751D01*
X0299159Y0103783D01*
X0299023Y0103819D01*
X0298888Y0103860D01*
X0298754Y0103904D01*
X0298621Y0103951D01*
X0298490Y0104003D01*
X0298360Y0104058D01*
X0298232Y0104116D01*
X0298106Y0104179D01*
X0297981Y0104244D01*
X0297859Y0104314D01*
X0297738Y0104386D01*
X0297619Y0104462D01*
X0297503Y0104542D01*
X0297389Y0104625D01*
X0297277Y0104710D01*
X0297168Y0104799D01*
X0297061Y0104891D01*
X0296957Y0104986D01*
X0296856Y0105084D01*
X0296757Y0105185D01*
X0296662Y0105288D01*
X0296569Y0105394D01*
X0296479Y0105503D01*
X0296393Y0105614D01*
X0296309Y0105727D01*
X0296229Y0105843D01*
X0296152Y0105961D01*
X0296079Y0106081D01*
X0296008Y0106204D01*
X0295942Y0106328D01*
X0295879Y0106454D01*
X0295819Y0106581D01*
X0295763Y0106710D01*
X0295711Y0106841D01*
X0295662Y0106973D01*
X0295617Y0107107D01*
X0295576Y0107242D01*
X0295539Y0107378D01*
X0295505Y0107514D01*
X0295476Y0107652D01*
X0295450Y0107791D01*
X0295429Y0107930D01*
X0295411Y0108070D01*
X0295397Y0108210D01*
X0295387Y0108350D01*
X0295381Y0108491D01*
X0295379Y0108632D01*
X0220379Y0108632D02*
X0220379Y0043632D01*
X0210379Y0033632D01*
X0135379Y0033632D01*
X0124946Y0044065D01*
X0124946Y0058042D01*
X0130379Y0069223D02*
X0130379Y0198632D01*
X0135379Y0203632D01*
X0165379Y0203632D01*
X0176479Y0214732D01*
X0176479Y0248032D01*
X0187379Y0248032D02*
X0187379Y0200632D01*
X0180379Y0193632D01*
X0150379Y0193632D01*
X0140379Y0183632D01*
X0140379Y0093632D01*
X0143879Y0090132D01*
X0145379Y0090132D01*
X0141284Y0086038D01*
X0141284Y0069223D01*
X0130379Y0069223D02*
X0130379Y0098632D01*
X0120379Y0093632D02*
X0120379Y0070128D01*
X0119473Y0069223D01*
X0108568Y0069223D02*
X0108568Y0075443D01*
X0105379Y0078632D01*
X0070379Y0078632D01*
X0066879Y0082132D01*
X0066879Y0104132D01*
X0076379Y0113632D01*
X0100379Y0113632D01*
X0103879Y0117132D01*
X0103879Y0123132D01*
X0085379Y0123132D02*
X0085379Y0158632D01*
X0070379Y0173632D02*
X0100379Y0173632D01*
X0115379Y0158632D01*
X0115379Y0108632D01*
X0110879Y0104132D01*
X0110379Y0104132D01*
X0110379Y0103632D01*
X0120379Y0093632D01*
X0110379Y0104132D02*
X0103879Y0104132D01*
X0085379Y0104132D02*
X0085379Y0088632D01*
X0055379Y0088632D02*
X0055379Y0233632D01*
X0060379Y0238632D01*
X0145379Y0238632D01*
X0150379Y0243632D01*
X0150379Y0253632D01*
X0155979Y0259232D01*
X0160179Y0259232D01*
X0165579Y0248032D02*
X0165579Y0228832D01*
X0165379Y0228632D01*
X0160379Y0223632D01*
X0090379Y0223632D01*
X0085379Y0218632D01*
X0085379Y0188632D01*
X0070379Y0173632D02*
X0065379Y0168632D01*
X0065379Y0124632D01*
X0066879Y0123132D01*
X0145379Y0090132D02*
X0150879Y0090132D01*
X0150879Y0108632D02*
X0150879Y0109132D01*
X0160379Y0118632D01*
X0169879Y0108632D02*
X0195379Y0108632D01*
X0205379Y0098632D01*
X0205379Y0048632D01*
X0200379Y0043632D01*
X0150379Y0043632D01*
X0145379Y0048632D01*
X0145379Y0056703D01*
X0146718Y0058042D01*
X0171379Y0088632D02*
X0169879Y0090132D01*
X0171379Y0088632D02*
X0185379Y0088632D01*
X0190379Y0093632D01*
X0190379Y0098632D01*
X0205379Y0113632D02*
X0215379Y0113632D01*
X0220379Y0108632D01*
X0205379Y0113632D02*
X0200379Y0118632D01*
X0169879Y0127132D02*
X0169879Y0139132D01*
X0160379Y0148632D01*
X0160379Y0163632D01*
X0165379Y0168632D01*
X0195379Y0168632D01*
X0200379Y0173632D01*
X0200379Y0183632D01*
X0209079Y0192332D01*
X0209079Y0248032D01*
X0198179Y0248032D02*
X0198179Y0196432D01*
X0180379Y0178632D01*
X0155379Y0178632D01*
X0150379Y0173632D01*
X0150379Y0127632D01*
X0150879Y0127132D01*
X0110379Y0283632D02*
X0110379Y0293632D01*
X0105379Y0298632D01*
X0100379Y0298632D01*
X0100379Y0308632D02*
X0115379Y0308632D01*
X0105379Y0318632D02*
X0110379Y0323632D01*
X0110379Y0333632D01*
X0105379Y0318632D02*
X0100379Y0318632D01*
X0080379Y0318632D02*
X0075379Y0318632D01*
X0070379Y0323632D01*
X0070379Y0333632D01*
X0065379Y0308632D02*
X0080379Y0308632D01*
X0080379Y0298632D02*
X0075379Y0298632D01*
X0070379Y0293632D01*
X0070379Y0283632D01*
D13*
X0134379Y0342232D02*
X0134379Y0345032D01*
X0144379Y0345032D02*
X0144379Y0342232D01*
X0154379Y0342232D02*
X0154379Y0345032D01*
X0164379Y0345032D02*
X0164379Y0342232D01*
X0174379Y0342232D02*
X0174379Y0345032D01*
X0184379Y0345032D02*
X0184379Y0342232D01*
X0194379Y0342232D02*
X0194379Y0345032D01*
X0204379Y0345032D02*
X0204379Y0342232D01*
X0214379Y0342232D02*
X0214379Y0345032D01*
X0224379Y0345032D02*
X0224379Y0342232D01*
X0240379Y0342232D02*
X0240379Y0345032D01*
X0250379Y0345032D02*
X0250379Y0342232D01*
X0260379Y0342232D02*
X0260379Y0345032D01*
X0270379Y0345032D02*
X0270379Y0342232D01*
X0280379Y0342232D02*
X0280379Y0345032D01*
X0290379Y0345032D02*
X0290379Y0342232D01*
X0300379Y0342232D02*
X0300379Y0345032D01*
X0310379Y0345032D02*
X0310379Y0342232D01*
X0310379Y0155032D02*
X0310379Y0152232D01*
X0300379Y0152232D02*
X0300379Y0155032D01*
X0290379Y0155032D02*
X0290379Y0152232D01*
X0280379Y0152232D02*
X0280379Y0155032D01*
X0270379Y0155032D02*
X0270379Y0152232D01*
X0260379Y0152232D02*
X0260379Y0155032D01*
X0240379Y0155032D02*
X0240379Y0152232D01*
X0230379Y0152232D02*
X0230379Y0155032D01*
X0220379Y0155032D02*
X0220379Y0152232D01*
X0210379Y0152232D02*
X0210379Y0155032D01*
X0200379Y0155032D02*
X0200379Y0152232D01*
X0190379Y0152232D02*
X0190379Y0155032D01*
X0180379Y0155032D02*
X0180379Y0152232D01*
X0170379Y0152232D02*
X0170379Y0155032D01*
D14*
X0152190Y0069223D03*
X0272879Y0063132D03*
D15*
X0262879Y0063132D03*
X0252879Y0063132D03*
X0242879Y0063132D03*
X0146718Y0058042D03*
X0135812Y0058042D03*
X0124946Y0058042D03*
X0114040Y0058042D03*
X0119473Y0069223D03*
X0108568Y0069223D03*
X0130379Y0069223D03*
X0141284Y0069223D03*
X0270379Y0173632D03*
X0270379Y0223632D03*
D16*
X0155379Y0293632D03*
X0155379Y0323632D03*
D17*
X0179592Y0063632D03*
X0081166Y0063632D03*
D18*
X0085379Y0104132D03*
X0103879Y0104132D03*
X0103879Y0123132D03*
X0085379Y0123132D03*
X0066879Y0123132D03*
X0066879Y0104132D03*
X0150879Y0108632D03*
X0150879Y0090132D03*
X0169879Y0090132D03*
X0169879Y0108632D03*
X0169879Y0127132D03*
X0150879Y0127132D03*
D19*
X0271702Y0131953D02*
X0276148Y0131501D01*
X0276440Y0130496D01*
X0276840Y0129529D01*
X0277345Y0128612D01*
X0274521Y0125149D01*
X0276895Y0122774D01*
X0280359Y0125598D01*
X0281041Y0125210D01*
X0281753Y0124880D01*
X0283731Y0129654D01*
X0283088Y0129986D01*
X0282509Y0130421D01*
X0282012Y0130947D01*
X0281610Y0131549D01*
X0281314Y0132210D01*
X0281133Y0132911D01*
X0281073Y0133632D01*
X0281148Y0134436D01*
X0281373Y0135212D01*
X0281738Y0135932D01*
X0282232Y0136571D01*
X0282836Y0137107D01*
X0283529Y0137521D01*
X0284288Y0137798D01*
X0285085Y0137928D01*
X0285892Y0137908D01*
X0286681Y0137737D01*
X0287425Y0137421D01*
X0288096Y0136973D01*
X0288672Y0136407D01*
X0289132Y0135743D01*
X0289460Y0135005D01*
X0289645Y0134219D01*
X0289679Y0133412D01*
X0289563Y0132613D01*
X0289299Y0131850D01*
X0288897Y0131149D01*
X0288372Y0130536D01*
X0287741Y0130032D01*
X0287027Y0129654D01*
X0289005Y0124880D01*
X0289717Y0125210D01*
X0290399Y0125598D01*
X0293862Y0122774D01*
X0296237Y0125149D01*
X0293413Y0128612D01*
X0293918Y0129529D01*
X0294318Y0130496D01*
X0294610Y0131501D01*
X0299056Y0131953D01*
X0299056Y0135311D01*
X0294610Y0135763D01*
X0294318Y0136769D01*
X0293918Y0137736D01*
X0293413Y0138652D01*
X0296237Y0142116D01*
X0293862Y0144491D01*
X0290399Y0141667D01*
X0289482Y0142171D01*
X0288515Y0142572D01*
X0287510Y0142863D01*
X0287058Y0147309D01*
X0283700Y0147309D01*
X0283248Y0142863D01*
X0282243Y0142572D01*
X0281276Y0142171D01*
X0280359Y0141667D01*
X0276895Y0144491D01*
X0274521Y0142116D01*
X0277345Y0138652D01*
X0276840Y0137736D01*
X0276440Y0136769D01*
X0276148Y0135763D01*
X0271702Y0135311D01*
X0271702Y0131953D01*
X0271702Y0131992D02*
X0281412Y0131992D01*
X0281219Y0132581D02*
X0271702Y0132581D01*
X0271702Y0133170D02*
X0281112Y0133170D01*
X0281085Y0133759D02*
X0271702Y0133759D01*
X0271702Y0134348D02*
X0281140Y0134348D01*
X0281293Y0134937D02*
X0271702Y0134937D01*
X0273813Y0135526D02*
X0281532Y0135526D01*
X0281879Y0136115D02*
X0276250Y0136115D01*
X0276421Y0136704D02*
X0282381Y0136704D01*
X0283147Y0137293D02*
X0276657Y0137293D01*
X0276921Y0137882D02*
X0284803Y0137882D01*
X0286010Y0137882D02*
X0293837Y0137882D01*
X0294101Y0137293D02*
X0287617Y0137293D01*
X0288370Y0136704D02*
X0294337Y0136704D01*
X0294508Y0136115D02*
X0288874Y0136115D01*
X0289229Y0135526D02*
X0296945Y0135526D01*
X0299056Y0134937D02*
X0289476Y0134937D01*
X0289615Y0134348D02*
X0299056Y0134348D01*
X0299056Y0133759D02*
X0289665Y0133759D01*
X0289644Y0133170D02*
X0299056Y0133170D01*
X0299056Y0132581D02*
X0289552Y0132581D01*
X0289348Y0131992D02*
X0299056Y0131992D01*
X0294581Y0131403D02*
X0289042Y0131403D01*
X0288609Y0130814D02*
X0294410Y0130814D01*
X0294206Y0130224D02*
X0287982Y0130224D01*
X0287035Y0129635D02*
X0293962Y0129635D01*
X0293652Y0129046D02*
X0287279Y0129046D01*
X0287523Y0128457D02*
X0293540Y0128457D01*
X0294020Y0127868D02*
X0287767Y0127868D01*
X0288011Y0127279D02*
X0294500Y0127279D01*
X0294980Y0126690D02*
X0288255Y0126690D01*
X0288499Y0126101D02*
X0295461Y0126101D01*
X0295941Y0125512D02*
X0290505Y0125512D01*
X0290248Y0125512D02*
X0288743Y0125512D01*
X0288987Y0124923D02*
X0289097Y0124923D01*
X0291227Y0124923D02*
X0296011Y0124923D01*
X0295422Y0124334D02*
X0291949Y0124334D01*
X0292672Y0123745D02*
X0294833Y0123745D01*
X0294244Y0123156D02*
X0293394Y0123156D01*
X0282747Y0127279D02*
X0276258Y0127279D01*
X0276738Y0127868D02*
X0282991Y0127868D01*
X0283235Y0128457D02*
X0277218Y0128457D01*
X0277106Y0129046D02*
X0283479Y0129046D01*
X0283723Y0129635D02*
X0276796Y0129635D01*
X0276552Y0130224D02*
X0282771Y0130224D01*
X0282139Y0130814D02*
X0276348Y0130814D01*
X0276177Y0131403D02*
X0281708Y0131403D01*
X0282503Y0126690D02*
X0275777Y0126690D01*
X0275297Y0126101D02*
X0282259Y0126101D01*
X0282015Y0125512D02*
X0280510Y0125512D01*
X0280253Y0125512D02*
X0274817Y0125512D01*
X0274747Y0124923D02*
X0279531Y0124923D01*
X0278808Y0124334D02*
X0275336Y0124334D01*
X0275925Y0123745D02*
X0278086Y0123745D01*
X0277364Y0123156D02*
X0276514Y0123156D01*
X0281661Y0124923D02*
X0281771Y0124923D01*
X0277245Y0138471D02*
X0293513Y0138471D01*
X0293746Y0139060D02*
X0277012Y0139060D01*
X0276532Y0139649D02*
X0294226Y0139649D01*
X0294707Y0140239D02*
X0276051Y0140239D01*
X0275571Y0140828D02*
X0295187Y0140828D01*
X0295667Y0141417D02*
X0275091Y0141417D01*
X0274610Y0142006D02*
X0279943Y0142006D01*
X0279220Y0142595D02*
X0275000Y0142595D01*
X0275589Y0143184D02*
X0278498Y0143184D01*
X0277776Y0143773D02*
X0276178Y0143773D01*
X0276767Y0144362D02*
X0277053Y0144362D01*
X0280975Y0142006D02*
X0289783Y0142006D01*
X0290815Y0142006D02*
X0296147Y0142006D01*
X0295758Y0142595D02*
X0291537Y0142595D01*
X0292260Y0143184D02*
X0295169Y0143184D01*
X0294580Y0143773D02*
X0292982Y0143773D01*
X0293705Y0144362D02*
X0293991Y0144362D01*
X0288435Y0142595D02*
X0282323Y0142595D01*
X0283280Y0143184D02*
X0287477Y0143184D01*
X0287418Y0143773D02*
X0283340Y0143773D01*
X0283400Y0144362D02*
X0287358Y0144362D01*
X0287298Y0144951D02*
X0283460Y0144951D01*
X0283520Y0145540D02*
X0287238Y0145540D01*
X0287178Y0146129D02*
X0283580Y0146129D01*
X0283640Y0146718D02*
X0287118Y0146718D01*
X0287058Y0147307D02*
X0283700Y0147307D01*
D20*
X0200379Y0118632D03*
X0190379Y0098632D03*
X0160379Y0118632D03*
X0130379Y0098632D03*
X0085379Y0088632D03*
X0055379Y0088632D03*
X0085379Y0158632D03*
X0085379Y0188632D03*
D21*
X0165579Y0248032D03*
X0176479Y0248032D03*
X0187379Y0248032D03*
X0198179Y0248032D03*
X0209079Y0248032D03*
X0219979Y0248032D03*
X0230779Y0248032D03*
X0241679Y0248032D03*
X0252579Y0248032D03*
X0263379Y0248032D03*
X0274279Y0248032D03*
X0285179Y0248032D03*
X0290579Y0259232D03*
X0279679Y0259232D03*
X0268879Y0259232D03*
X0257979Y0259232D03*
X0247079Y0259232D03*
X0236279Y0259232D03*
X0225379Y0259232D03*
X0214479Y0259232D03*
X0203679Y0259232D03*
X0192779Y0259232D03*
X0181879Y0259232D03*
X0171079Y0259232D03*
X0160179Y0259232D03*
D22*
X0171079Y0259232D02*
X0156679Y0273632D01*
X0155379Y0273632D01*
X0155379Y0293632D01*
X0175379Y0278632D02*
X0181879Y0272132D01*
X0192779Y0261232D01*
X0192779Y0259232D01*
X0181879Y0259232D02*
X0181879Y0272132D01*
X0175379Y0278632D02*
X0175379Y0308632D01*
X0164379Y0319632D01*
X0164379Y0343632D01*
X0174379Y0343632D02*
X0174379Y0324632D01*
X0185379Y0313632D01*
X0185379Y0283632D01*
X0203679Y0265332D01*
X0203679Y0259232D01*
X0214479Y0259232D02*
X0214479Y0264532D01*
X0195379Y0283632D01*
X0195379Y0318632D01*
X0185379Y0328632D01*
X0185379Y0342632D01*
X0184379Y0343632D01*
X0194379Y0343632D02*
X0194379Y0329632D01*
X0205379Y0318632D01*
X0205379Y0283632D01*
X0225379Y0263632D01*
X0225379Y0259232D01*
X0236279Y0259232D02*
X0236279Y0262732D01*
X0215379Y0283632D01*
X0215379Y0323632D01*
X0205379Y0333632D01*
X0205379Y0342632D01*
X0204379Y0343632D01*
X0214379Y0343632D02*
X0214379Y0339632D01*
X0225379Y0328632D01*
X0225379Y0283632D01*
X0247079Y0261932D01*
X0247079Y0259232D01*
X0257979Y0259232D02*
X0257979Y0266032D01*
X0230379Y0293632D01*
X0230379Y0333632D01*
X0225379Y0338632D01*
X0225379Y0342632D01*
X0224379Y0343632D01*
X0215379Y0343632D02*
X0214379Y0343632D01*
X0214379Y0347632D01*
X0215379Y0348632D01*
X0210379Y0353632D01*
X0130379Y0353632D01*
X0125379Y0348632D01*
X0125379Y0333632D01*
X0130379Y0328632D01*
X0150379Y0328632D01*
X0155379Y0323632D01*
X0155379Y0273632D02*
X0050379Y0273632D01*
X0045379Y0268632D01*
X0045379Y0063632D01*
X0085379Y0023632D01*
X0225379Y0023632D01*
X0230379Y0028632D01*
X0230379Y0078632D01*
X0240379Y0088632D01*
X0240379Y0118632D01*
X0235379Y0123632D01*
X0210379Y0123632D01*
X0200379Y0133632D01*
X0200379Y0153632D01*
X0210379Y0153632D02*
X0210379Y0183632D01*
X0225379Y0198632D01*
X0225379Y0228632D01*
X0230779Y0234032D01*
X0230779Y0248032D01*
X0241679Y0248032D02*
X0241679Y0198632D01*
X0231679Y0188632D01*
X0225379Y0188632D01*
X0220379Y0183632D01*
X0220379Y0153632D01*
X0210379Y0153632D02*
X0210379Y0138632D01*
X0215379Y0133632D01*
X0245379Y0133632D01*
X0250379Y0128632D01*
X0250379Y0083632D01*
X0242879Y0076132D01*
X0242879Y0063132D01*
X0252879Y0063132D02*
X0252879Y0051132D01*
X0255379Y0048632D01*
X0320379Y0048632D01*
X0330379Y0058632D01*
X0330379Y0218632D01*
X0325379Y0223632D01*
X0330379Y0228632D01*
X0330379Y0288632D01*
X0320379Y0298632D01*
X0280379Y0298632D01*
X0270379Y0308632D01*
X0270379Y0343632D01*
X0260379Y0343632D02*
X0260379Y0303632D01*
X0275379Y0288632D01*
X0285379Y0288632D01*
X0290579Y0283432D01*
X0290579Y0259232D01*
X0279679Y0259232D02*
X0279679Y0269332D01*
X0250379Y0298632D01*
X0250379Y0343632D01*
X0240379Y0343632D02*
X0240379Y0293632D01*
X0268879Y0265132D01*
X0268879Y0259232D01*
X0270379Y0223632D02*
X0325379Y0223632D01*
X0315379Y0188632D02*
X0250379Y0188632D01*
X0241679Y0197332D01*
X0241679Y0198632D01*
X0255379Y0173632D02*
X0250379Y0168632D01*
X0250379Y0138632D01*
X0245379Y0133632D01*
X0255379Y0173632D02*
X0270379Y0173632D01*
X0315379Y0188632D02*
X0320379Y0183632D01*
X0320379Y0073632D01*
X0309879Y0063132D01*
X0272879Y0063132D01*
X0225379Y0228632D02*
X0219979Y0234032D01*
X0219979Y0248032D01*
M02*
