%
M48
M72
T01C0.03200
T02C0.03346
T03C0.03543
T04C0.04000
T05C0.07100
T06C0.12598
T07C0.13000
%
T01
X55379Y88632
X85379Y88632
X130379Y98632
X160379Y118632
X190379Y98632
X200379Y118632
X85379Y158632
X85379Y188632
T02
X170379Y153632
X180379Y153632
X190379Y153632
X200379Y153632
X210379Y153632
X220379Y153632
X230379Y153632
X240379Y153632
X260379Y153632
X270379Y153632
X280379Y153632
X290379Y153632
X300379Y153632
X310379Y153632
X310379Y343632
X300379Y343632
X290379Y343632
X280379Y343632
X270379Y343632
X260379Y343632
X250379Y343632
X240379Y343632
X224379Y343632
X214379Y343632
X204379Y343632
X194379Y343632
X184379Y343632
X174379Y343632
X164379Y343632
X154379Y343632
X144379Y343632
X134379Y343632
T03
X270379Y223632
X270379Y173632
T04
X274279Y248032
X285179Y248032
X290579Y259232
X279679Y259232
X268879Y259232
X257979Y259232
X247079Y259232
X236279Y259232
X225379Y259232
X214479Y259232
X203679Y259232
X192779Y259232
X181879Y259232
X171079Y259232
X160179Y259232
X165579Y248032
X176479Y248032
X187379Y248032
X198179Y248032
X209079Y248032
X219979Y248032
X230779Y248032
X241679Y248032
X252579Y248032
X263379Y248032
X155379Y293632
X155379Y323632
X152190Y69223
X141284Y69223
X130379Y69223
X119473Y69223
X108568Y69223
X114040Y58042
X124946Y58042
X135812Y58042
X146718Y58042
X242879Y63132
X252879Y63132
X262879Y63132
X272879Y63132
T05
X169879Y90132
X169879Y108632
X169879Y127132
X150879Y127132
X150879Y108632
X150879Y90132
X103879Y104132
X85379Y104132
X66879Y104132
X66879Y123132
X85379Y123132
X103879Y123132
T06
X50379Y28632
X325379Y28632
X315379Y313632
X50379Y348632
T07
X132779Y253632
X317979Y253632
X179592Y63632
X81166Y63632
M30
