G75*
%MOIN*%
%OFA0B0*%
%FSLAX25Y25*%
%IPPOS*%
%LPD*%
%AMOC8*
5,1,8,0,0,1.08239X$1,22.5*
%
%ADD10C,0.05000*%
%ADD11C,0.07400*%
%ADD12R,0.02000X0.24000*%
%ADD13OC8,0.06000*%
%ADD14C,0.20000*%
%ADD15OC8,0.06300*%
%ADD16C,0.00591*%
%ADD17C,0.03200*%
D10*
X0028500Y0008500D02*
X0028500Y0018500D01*
X0033500Y0023500D01*
X0038500Y0023500D01*
X0038500Y0033500D02*
X0023500Y0033500D01*
X0033500Y0043500D02*
X0028500Y0048500D01*
X0028500Y0058500D01*
X0033500Y0043500D02*
X0038500Y0043500D01*
X0058500Y0043500D02*
X0063500Y0043500D01*
X0068500Y0048500D01*
X0068500Y0058500D01*
X0073500Y0033500D02*
X0058500Y0033500D01*
X0058500Y0023500D02*
X0063500Y0023500D01*
X0068500Y0018500D01*
X0068500Y0008500D01*
X0138500Y0061000D02*
X0148500Y0061000D01*
X0153500Y0061000D01*
X0153500Y0056000D01*
X0148500Y0056000D02*
X0148500Y0061000D01*
X0153500Y0061000D02*
X0163500Y0061000D01*
X0163683Y0061063D01*
X0163864Y0061131D01*
X0164044Y0061203D01*
X0164222Y0061280D01*
X0164398Y0061361D01*
X0164571Y0061447D01*
X0164743Y0061536D01*
X0164912Y0061630D01*
X0165079Y0061728D01*
X0165244Y0061830D01*
X0165406Y0061936D01*
X0165566Y0062046D01*
X0165722Y0062159D01*
X0165876Y0062277D01*
X0166027Y0062398D01*
X0166175Y0062523D01*
X0166320Y0062652D01*
X0166461Y0062784D01*
X0166600Y0062919D01*
X0166735Y0063058D01*
X0166866Y0063200D01*
X0166994Y0063345D01*
X0167119Y0063493D01*
X0167240Y0063645D01*
X0167357Y0063799D01*
X0167470Y0063956D01*
X0167579Y0064116D01*
X0167685Y0064278D01*
X0167786Y0064443D01*
X0167883Y0064611D01*
X0167976Y0064780D01*
X0168065Y0064952D01*
X0168150Y0065127D01*
X0168231Y0065303D01*
X0168307Y0065481D01*
X0168378Y0065660D01*
X0168446Y0065842D01*
X0168509Y0066025D01*
X0168567Y0066210D01*
X0168621Y0066396D01*
X0168670Y0066583D01*
X0168715Y0066771D01*
X0168755Y0066961D01*
X0168790Y0067151D01*
X0168821Y0067342D01*
X0168847Y0067534D01*
X0168868Y0067727D01*
X0168885Y0067920D01*
X0168897Y0068113D01*
X0168904Y0068306D01*
X0168906Y0068500D01*
X0168904Y0068694D01*
X0168897Y0068887D01*
X0168885Y0069080D01*
X0168868Y0069273D01*
X0168847Y0069466D01*
X0168821Y0069658D01*
X0168790Y0069849D01*
X0168755Y0070039D01*
X0168715Y0070229D01*
X0168670Y0070417D01*
X0168621Y0070604D01*
X0168567Y0070790D01*
X0168509Y0070975D01*
X0168446Y0071158D01*
X0168378Y0071340D01*
X0168307Y0071519D01*
X0168231Y0071697D01*
X0168150Y0071873D01*
X0168065Y0072048D01*
X0167976Y0072220D01*
X0167883Y0072389D01*
X0167786Y0072557D01*
X0167685Y0072722D01*
X0167579Y0072884D01*
X0167470Y0073044D01*
X0167357Y0073201D01*
X0167240Y0073355D01*
X0167119Y0073507D01*
X0166994Y0073655D01*
X0166866Y0073800D01*
X0166735Y0073942D01*
X0166600Y0074081D01*
X0166461Y0074216D01*
X0166320Y0074348D01*
X0166175Y0074477D01*
X0166027Y0074602D01*
X0165876Y0074723D01*
X0165722Y0074841D01*
X0165566Y0074954D01*
X0165406Y0075064D01*
X0165244Y0075170D01*
X0165079Y0075272D01*
X0164912Y0075370D01*
X0164743Y0075464D01*
X0164571Y0075553D01*
X0164398Y0075639D01*
X0164222Y0075720D01*
X0164044Y0075797D01*
X0163864Y0075869D01*
X0163683Y0075937D01*
X0163500Y0076000D01*
X0138500Y0076000D01*
X0143500Y0076000D02*
X0143500Y0071000D01*
X0138500Y0076000D02*
X0138317Y0075937D01*
X0138136Y0075869D01*
X0137956Y0075797D01*
X0137778Y0075720D01*
X0137602Y0075639D01*
X0137429Y0075553D01*
X0137257Y0075464D01*
X0137088Y0075370D01*
X0136921Y0075272D01*
X0136756Y0075170D01*
X0136594Y0075064D01*
X0136434Y0074954D01*
X0136278Y0074841D01*
X0136124Y0074723D01*
X0135973Y0074602D01*
X0135825Y0074477D01*
X0135680Y0074348D01*
X0135539Y0074216D01*
X0135400Y0074081D01*
X0135265Y0073942D01*
X0135134Y0073800D01*
X0135006Y0073655D01*
X0134881Y0073507D01*
X0134760Y0073355D01*
X0134643Y0073201D01*
X0134530Y0073044D01*
X0134421Y0072884D01*
X0134315Y0072722D01*
X0134214Y0072557D01*
X0134117Y0072389D01*
X0134024Y0072220D01*
X0133935Y0072048D01*
X0133850Y0071873D01*
X0133769Y0071697D01*
X0133693Y0071519D01*
X0133622Y0071340D01*
X0133554Y0071158D01*
X0133491Y0070975D01*
X0133433Y0070790D01*
X0133379Y0070604D01*
X0133330Y0070417D01*
X0133285Y0070229D01*
X0133245Y0070039D01*
X0133210Y0069849D01*
X0133179Y0069658D01*
X0133153Y0069466D01*
X0133132Y0069273D01*
X0133115Y0069080D01*
X0133103Y0068887D01*
X0133096Y0068694D01*
X0133094Y0068500D01*
X0133096Y0068306D01*
X0133103Y0068113D01*
X0133115Y0067920D01*
X0133132Y0067727D01*
X0133153Y0067534D01*
X0133179Y0067342D01*
X0133210Y0067151D01*
X0133245Y0066961D01*
X0133285Y0066771D01*
X0133330Y0066583D01*
X0133379Y0066396D01*
X0133433Y0066210D01*
X0133491Y0066025D01*
X0133554Y0065842D01*
X0133622Y0065660D01*
X0133693Y0065481D01*
X0133769Y0065303D01*
X0133850Y0065127D01*
X0133935Y0064952D01*
X0134024Y0064780D01*
X0134117Y0064611D01*
X0134214Y0064443D01*
X0134315Y0064278D01*
X0134421Y0064116D01*
X0134530Y0063956D01*
X0134643Y0063799D01*
X0134760Y0063645D01*
X0134881Y0063493D01*
X0135006Y0063345D01*
X0135134Y0063200D01*
X0135265Y0063058D01*
X0135400Y0062919D01*
X0135539Y0062784D01*
X0135680Y0062652D01*
X0135825Y0062523D01*
X0135973Y0062398D01*
X0136124Y0062277D01*
X0136278Y0062159D01*
X0136434Y0062046D01*
X0136594Y0061936D01*
X0136756Y0061830D01*
X0136921Y0061728D01*
X0137088Y0061630D01*
X0137257Y0061536D01*
X0137429Y0061447D01*
X0137602Y0061361D01*
X0137778Y0061280D01*
X0137956Y0061203D01*
X0138136Y0061131D01*
X0138317Y0061063D01*
X0138500Y0061000D01*
X0158500Y0071000D02*
X0158500Y0076000D01*
X0153500Y0082000D02*
X0148500Y0082000D01*
X0148500Y0086881D01*
X0149313Y0088979D01*
X0149313Y0091000D01*
X0152500Y0091000D01*
X0153243Y0087026D01*
X0153500Y0086611D01*
X0153500Y0082000D01*
X0153500Y0085975D02*
X0148500Y0085975D01*
X0149313Y0090973D02*
X0152505Y0090973D01*
X0158500Y0091000D02*
X0158502Y0091141D01*
X0158508Y0091282D01*
X0158518Y0091422D01*
X0158532Y0091562D01*
X0158550Y0091702D01*
X0158571Y0091841D01*
X0158597Y0091980D01*
X0158626Y0092118D01*
X0158660Y0092254D01*
X0158697Y0092390D01*
X0158738Y0092525D01*
X0158783Y0092659D01*
X0158832Y0092791D01*
X0158884Y0092922D01*
X0158940Y0093051D01*
X0159000Y0093178D01*
X0159063Y0093304D01*
X0159129Y0093428D01*
X0159200Y0093551D01*
X0159273Y0093671D01*
X0159350Y0093789D01*
X0159430Y0093905D01*
X0159514Y0094018D01*
X0159600Y0094129D01*
X0159690Y0094238D01*
X0159783Y0094344D01*
X0159878Y0094447D01*
X0159977Y0094548D01*
X0160078Y0094646D01*
X0160182Y0094741D01*
X0160289Y0094833D01*
X0160398Y0094922D01*
X0160510Y0095007D01*
X0160624Y0095090D01*
X0160740Y0095170D01*
X0160859Y0095246D01*
X0160980Y0095318D01*
X0161102Y0095388D01*
X0161227Y0095453D01*
X0161353Y0095516D01*
X0161481Y0095574D01*
X0161611Y0095629D01*
X0161742Y0095681D01*
X0161875Y0095728D01*
X0162009Y0095772D01*
X0162144Y0095813D01*
X0162280Y0095849D01*
X0162417Y0095881D01*
X0162555Y0095910D01*
X0162693Y0095935D01*
X0162833Y0095955D01*
X0162973Y0095972D01*
X0163113Y0095985D01*
X0163254Y0095994D01*
X0163394Y0095999D01*
X0163535Y0096000D01*
X0163676Y0095997D01*
X0163817Y0095990D01*
X0163957Y0095979D01*
X0164097Y0095964D01*
X0164237Y0095945D01*
X0164376Y0095923D01*
X0164514Y0095896D01*
X0164652Y0095866D01*
X0164788Y0095831D01*
X0164924Y0095793D01*
X0165058Y0095751D01*
X0165192Y0095705D01*
X0165324Y0095656D01*
X0165454Y0095602D01*
X0165583Y0095545D01*
X0165710Y0095485D01*
X0165836Y0095421D01*
X0165959Y0095353D01*
X0166081Y0095282D01*
X0166201Y0095208D01*
X0166318Y0095130D01*
X0166433Y0095049D01*
X0166546Y0094965D01*
X0166657Y0094878D01*
X0166765Y0094787D01*
X0166870Y0094694D01*
X0166973Y0094597D01*
X0167073Y0094498D01*
X0167170Y0094396D01*
X0167264Y0094291D01*
X0167355Y0094184D01*
X0167443Y0094074D01*
X0167528Y0093962D01*
X0167610Y0093847D01*
X0167689Y0093730D01*
X0167764Y0093611D01*
X0167836Y0093490D01*
X0167904Y0093367D01*
X0167969Y0093242D01*
X0168031Y0093115D01*
X0168088Y0092986D01*
X0168143Y0092856D01*
X0168193Y0092725D01*
X0168240Y0092592D01*
X0168283Y0092458D01*
X0168322Y0092322D01*
X0168357Y0092186D01*
X0168389Y0092049D01*
X0168416Y0091911D01*
X0168440Y0091772D01*
X0168460Y0091632D01*
X0168476Y0091492D01*
X0168488Y0091352D01*
X0168496Y0091211D01*
X0168500Y0091070D01*
X0168500Y0090930D01*
X0168496Y0090789D01*
X0168488Y0090648D01*
X0168476Y0090508D01*
X0168460Y0090368D01*
X0168440Y0090228D01*
X0168416Y0090089D01*
X0168389Y0089951D01*
X0168357Y0089814D01*
X0168322Y0089678D01*
X0168283Y0089542D01*
X0168240Y0089408D01*
X0168193Y0089275D01*
X0168143Y0089144D01*
X0168088Y0089014D01*
X0168031Y0088885D01*
X0167969Y0088758D01*
X0167904Y0088633D01*
X0167836Y0088510D01*
X0167764Y0088389D01*
X0167689Y0088270D01*
X0167610Y0088153D01*
X0167528Y0088038D01*
X0167443Y0087926D01*
X0167355Y0087816D01*
X0167264Y0087709D01*
X0167170Y0087604D01*
X0167073Y0087502D01*
X0166973Y0087403D01*
X0166870Y0087306D01*
X0166765Y0087213D01*
X0166657Y0087122D01*
X0166546Y0087035D01*
X0166433Y0086951D01*
X0166318Y0086870D01*
X0166201Y0086792D01*
X0166081Y0086718D01*
X0165959Y0086647D01*
X0165836Y0086579D01*
X0165710Y0086515D01*
X0165583Y0086455D01*
X0165454Y0086398D01*
X0165324Y0086344D01*
X0165192Y0086295D01*
X0165058Y0086249D01*
X0164924Y0086207D01*
X0164788Y0086169D01*
X0164652Y0086134D01*
X0164514Y0086104D01*
X0164376Y0086077D01*
X0164237Y0086055D01*
X0164097Y0086036D01*
X0163957Y0086021D01*
X0163817Y0086010D01*
X0163676Y0086003D01*
X0163535Y0086000D01*
X0163394Y0086001D01*
X0163254Y0086006D01*
X0163113Y0086015D01*
X0162973Y0086028D01*
X0162833Y0086045D01*
X0162693Y0086065D01*
X0162555Y0086090D01*
X0162417Y0086119D01*
X0162280Y0086151D01*
X0162144Y0086187D01*
X0162009Y0086228D01*
X0161875Y0086272D01*
X0161742Y0086319D01*
X0161611Y0086371D01*
X0161481Y0086426D01*
X0161353Y0086484D01*
X0161227Y0086547D01*
X0161102Y0086612D01*
X0160980Y0086682D01*
X0160859Y0086754D01*
X0160740Y0086830D01*
X0160624Y0086910D01*
X0160510Y0086993D01*
X0160398Y0087078D01*
X0160289Y0087167D01*
X0160182Y0087259D01*
X0160078Y0087354D01*
X0159977Y0087452D01*
X0159878Y0087553D01*
X0159783Y0087656D01*
X0159690Y0087762D01*
X0159600Y0087871D01*
X0159514Y0087982D01*
X0159430Y0088095D01*
X0159350Y0088211D01*
X0159273Y0088329D01*
X0159200Y0088449D01*
X0159129Y0088572D01*
X0159063Y0088696D01*
X0159000Y0088822D01*
X0158940Y0088949D01*
X0158884Y0089078D01*
X0158832Y0089209D01*
X0158783Y0089341D01*
X0158738Y0089475D01*
X0158697Y0089610D01*
X0158660Y0089746D01*
X0158626Y0089882D01*
X0158597Y0090020D01*
X0158571Y0090159D01*
X0158550Y0090298D01*
X0158532Y0090438D01*
X0158518Y0090578D01*
X0158508Y0090718D01*
X0158502Y0090859D01*
X0158500Y0091000D01*
X0133500Y0091000D02*
X0133502Y0091141D01*
X0133508Y0091282D01*
X0133518Y0091422D01*
X0133532Y0091562D01*
X0133550Y0091702D01*
X0133571Y0091841D01*
X0133597Y0091980D01*
X0133626Y0092118D01*
X0133660Y0092254D01*
X0133697Y0092390D01*
X0133738Y0092525D01*
X0133783Y0092659D01*
X0133832Y0092791D01*
X0133884Y0092922D01*
X0133940Y0093051D01*
X0134000Y0093178D01*
X0134063Y0093304D01*
X0134129Y0093428D01*
X0134200Y0093551D01*
X0134273Y0093671D01*
X0134350Y0093789D01*
X0134430Y0093905D01*
X0134514Y0094018D01*
X0134600Y0094129D01*
X0134690Y0094238D01*
X0134783Y0094344D01*
X0134878Y0094447D01*
X0134977Y0094548D01*
X0135078Y0094646D01*
X0135182Y0094741D01*
X0135289Y0094833D01*
X0135398Y0094922D01*
X0135510Y0095007D01*
X0135624Y0095090D01*
X0135740Y0095170D01*
X0135859Y0095246D01*
X0135980Y0095318D01*
X0136102Y0095388D01*
X0136227Y0095453D01*
X0136353Y0095516D01*
X0136481Y0095574D01*
X0136611Y0095629D01*
X0136742Y0095681D01*
X0136875Y0095728D01*
X0137009Y0095772D01*
X0137144Y0095813D01*
X0137280Y0095849D01*
X0137417Y0095881D01*
X0137555Y0095910D01*
X0137693Y0095935D01*
X0137833Y0095955D01*
X0137973Y0095972D01*
X0138113Y0095985D01*
X0138254Y0095994D01*
X0138394Y0095999D01*
X0138535Y0096000D01*
X0138676Y0095997D01*
X0138817Y0095990D01*
X0138957Y0095979D01*
X0139097Y0095964D01*
X0139237Y0095945D01*
X0139376Y0095923D01*
X0139514Y0095896D01*
X0139652Y0095866D01*
X0139788Y0095831D01*
X0139924Y0095793D01*
X0140058Y0095751D01*
X0140192Y0095705D01*
X0140324Y0095656D01*
X0140454Y0095602D01*
X0140583Y0095545D01*
X0140710Y0095485D01*
X0140836Y0095421D01*
X0140959Y0095353D01*
X0141081Y0095282D01*
X0141201Y0095208D01*
X0141318Y0095130D01*
X0141433Y0095049D01*
X0141546Y0094965D01*
X0141657Y0094878D01*
X0141765Y0094787D01*
X0141870Y0094694D01*
X0141973Y0094597D01*
X0142073Y0094498D01*
X0142170Y0094396D01*
X0142264Y0094291D01*
X0142355Y0094184D01*
X0142443Y0094074D01*
X0142528Y0093962D01*
X0142610Y0093847D01*
X0142689Y0093730D01*
X0142764Y0093611D01*
X0142836Y0093490D01*
X0142904Y0093367D01*
X0142969Y0093242D01*
X0143031Y0093115D01*
X0143088Y0092986D01*
X0143143Y0092856D01*
X0143193Y0092725D01*
X0143240Y0092592D01*
X0143283Y0092458D01*
X0143322Y0092322D01*
X0143357Y0092186D01*
X0143389Y0092049D01*
X0143416Y0091911D01*
X0143440Y0091772D01*
X0143460Y0091632D01*
X0143476Y0091492D01*
X0143488Y0091352D01*
X0143496Y0091211D01*
X0143500Y0091070D01*
X0143500Y0090930D01*
X0143496Y0090789D01*
X0143488Y0090648D01*
X0143476Y0090508D01*
X0143460Y0090368D01*
X0143440Y0090228D01*
X0143416Y0090089D01*
X0143389Y0089951D01*
X0143357Y0089814D01*
X0143322Y0089678D01*
X0143283Y0089542D01*
X0143240Y0089408D01*
X0143193Y0089275D01*
X0143143Y0089144D01*
X0143088Y0089014D01*
X0143031Y0088885D01*
X0142969Y0088758D01*
X0142904Y0088633D01*
X0142836Y0088510D01*
X0142764Y0088389D01*
X0142689Y0088270D01*
X0142610Y0088153D01*
X0142528Y0088038D01*
X0142443Y0087926D01*
X0142355Y0087816D01*
X0142264Y0087709D01*
X0142170Y0087604D01*
X0142073Y0087502D01*
X0141973Y0087403D01*
X0141870Y0087306D01*
X0141765Y0087213D01*
X0141657Y0087122D01*
X0141546Y0087035D01*
X0141433Y0086951D01*
X0141318Y0086870D01*
X0141201Y0086792D01*
X0141081Y0086718D01*
X0140959Y0086647D01*
X0140836Y0086579D01*
X0140710Y0086515D01*
X0140583Y0086455D01*
X0140454Y0086398D01*
X0140324Y0086344D01*
X0140192Y0086295D01*
X0140058Y0086249D01*
X0139924Y0086207D01*
X0139788Y0086169D01*
X0139652Y0086134D01*
X0139514Y0086104D01*
X0139376Y0086077D01*
X0139237Y0086055D01*
X0139097Y0086036D01*
X0138957Y0086021D01*
X0138817Y0086010D01*
X0138676Y0086003D01*
X0138535Y0086000D01*
X0138394Y0086001D01*
X0138254Y0086006D01*
X0138113Y0086015D01*
X0137973Y0086028D01*
X0137833Y0086045D01*
X0137693Y0086065D01*
X0137555Y0086090D01*
X0137417Y0086119D01*
X0137280Y0086151D01*
X0137144Y0086187D01*
X0137009Y0086228D01*
X0136875Y0086272D01*
X0136742Y0086319D01*
X0136611Y0086371D01*
X0136481Y0086426D01*
X0136353Y0086484D01*
X0136227Y0086547D01*
X0136102Y0086612D01*
X0135980Y0086682D01*
X0135859Y0086754D01*
X0135740Y0086830D01*
X0135624Y0086910D01*
X0135510Y0086993D01*
X0135398Y0087078D01*
X0135289Y0087167D01*
X0135182Y0087259D01*
X0135078Y0087354D01*
X0134977Y0087452D01*
X0134878Y0087553D01*
X0134783Y0087656D01*
X0134690Y0087762D01*
X0134600Y0087871D01*
X0134514Y0087982D01*
X0134430Y0088095D01*
X0134350Y0088211D01*
X0134273Y0088329D01*
X0134200Y0088449D01*
X0134129Y0088572D01*
X0134063Y0088696D01*
X0134000Y0088822D01*
X0133940Y0088949D01*
X0133884Y0089078D01*
X0133832Y0089209D01*
X0133783Y0089341D01*
X0133738Y0089475D01*
X0133697Y0089610D01*
X0133660Y0089746D01*
X0133626Y0089882D01*
X0133597Y0090020D01*
X0133571Y0090159D01*
X0133550Y0090298D01*
X0133532Y0090438D01*
X0133518Y0090578D01*
X0133508Y0090718D01*
X0133502Y0090859D01*
X0133500Y0091000D01*
D11*
X0136000Y0106000D03*
X0146000Y0106000D03*
X0156000Y0106000D03*
X0166000Y0106000D03*
X0176000Y0106000D03*
X0126000Y0106000D03*
X0116000Y0106000D03*
X0071000Y0101000D03*
X0071000Y0111000D03*
X0071000Y0121000D03*
X0071000Y0091000D03*
X0071000Y0081000D03*
X0071000Y0071000D03*
X0211000Y0046000D03*
X0221000Y0046000D03*
X0231000Y0046000D03*
X0241000Y0046000D03*
X0251000Y0046000D03*
X0261000Y0046000D03*
D12*
X0101000Y0095154D03*
X0096000Y0095154D03*
X0091000Y0095154D03*
X0086000Y0095154D03*
D13*
X0100800Y0141000D03*
X0111700Y0141000D03*
X0122500Y0141000D03*
X0133400Y0141000D03*
X0144300Y0141000D03*
X0155100Y0141000D03*
X0166000Y0141000D03*
X0176900Y0141000D03*
X0187700Y0141000D03*
X0198600Y0141000D03*
X0209500Y0141000D03*
X0220300Y0141000D03*
X0231200Y0141000D03*
X0225800Y0151000D03*
X0214900Y0151000D03*
X0204000Y0151000D03*
X0193200Y0151000D03*
X0182300Y0151000D03*
X0171400Y0151000D03*
X0160600Y0151000D03*
X0149700Y0151000D03*
X0138800Y0151000D03*
X0128000Y0151000D03*
X0117100Y0151000D03*
X0106200Y0151000D03*
D14*
X0073400Y0146000D03*
X0258600Y0146000D03*
D15*
X0198500Y0061000D03*
X0186000Y0061000D03*
X0186000Y0021000D03*
X0198500Y0021000D03*
D16*
X0254940Y0110744D02*
X0257414Y0112761D01*
X0258410Y0112248D01*
X0259823Y0115658D01*
X0259291Y0115942D01*
X0258825Y0116325D01*
X0258442Y0116791D01*
X0258158Y0117323D01*
X0257983Y0117900D01*
X0257924Y0118500D01*
X0257989Y0119128D01*
X0258181Y0119730D01*
X0258491Y0120280D01*
X0258908Y0120755D01*
X0259412Y0121135D01*
X0259984Y0121403D01*
X0260598Y0121550D01*
X0261230Y0121567D01*
X0261851Y0121456D01*
X0262437Y0121220D01*
X0262962Y0120869D01*
X0263405Y0120418D01*
X0263746Y0119886D01*
X0263971Y0119296D01*
X0264071Y0118673D01*
X0264042Y0118042D01*
X0263884Y0117430D01*
X0263604Y0116864D01*
X0263215Y0116366D01*
X0262733Y0115959D01*
X0262177Y0115658D01*
X0263590Y0112248D01*
X0264586Y0112761D01*
X0267060Y0110744D01*
X0268756Y0112440D01*
X0266739Y0114914D01*
X0267252Y0115911D01*
X0267593Y0116978D01*
X0270769Y0117300D01*
X0270769Y0119700D01*
X0267593Y0120022D01*
X0267252Y0121089D01*
X0266739Y0122086D01*
X0268756Y0124560D01*
X0267060Y0126256D01*
X0264586Y0124239D01*
X0263589Y0124752D01*
X0262522Y0125093D01*
X0262200Y0128269D01*
X0259800Y0128269D01*
X0259478Y0125093D01*
X0258411Y0124752D01*
X0257414Y0124239D01*
X0254940Y0126256D01*
X0253244Y0124560D01*
X0255261Y0122086D01*
X0254748Y0121089D01*
X0254407Y0120022D01*
X0251231Y0119700D01*
X0251231Y0117300D01*
X0254407Y0116978D01*
X0254748Y0115911D01*
X0255261Y0114914D01*
X0253244Y0112440D01*
X0254940Y0110744D01*
X0254530Y0111155D02*
X0255444Y0111155D01*
X0256166Y0111744D02*
X0253941Y0111744D01*
X0253351Y0112333D02*
X0256889Y0112333D01*
X0258246Y0112333D02*
X0258445Y0112333D01*
X0258689Y0112922D02*
X0253637Y0112922D01*
X0254117Y0113511D02*
X0258933Y0113511D01*
X0259177Y0114100D02*
X0254598Y0114100D01*
X0255078Y0114689D02*
X0259421Y0114689D01*
X0259665Y0115278D02*
X0255074Y0115278D01*
X0254771Y0115867D02*
X0259432Y0115867D01*
X0258717Y0116456D02*
X0254574Y0116456D01*
X0253743Y0117045D02*
X0258306Y0117045D01*
X0258064Y0117634D02*
X0251231Y0117634D01*
X0251231Y0118223D02*
X0257951Y0118223D01*
X0257956Y0118812D02*
X0251231Y0118812D01*
X0251231Y0119402D02*
X0258076Y0119402D01*
X0258328Y0119991D02*
X0254097Y0119991D01*
X0254585Y0120580D02*
X0258754Y0120580D01*
X0259485Y0121169D02*
X0254789Y0121169D01*
X0255093Y0121758D02*
X0266908Y0121758D01*
X0266951Y0122347D02*
X0255049Y0122347D01*
X0254568Y0122936D02*
X0267432Y0122936D01*
X0267912Y0123525D02*
X0254088Y0123525D01*
X0253608Y0124114D02*
X0268392Y0124114D01*
X0268613Y0124703D02*
X0265156Y0124703D01*
X0265878Y0125292D02*
X0268024Y0125292D01*
X0267434Y0125881D02*
X0266600Y0125881D01*
X0263684Y0124703D02*
X0258316Y0124703D01*
X0259498Y0125292D02*
X0262502Y0125292D01*
X0262442Y0125881D02*
X0259558Y0125881D01*
X0259618Y0126470D02*
X0262382Y0126470D01*
X0262322Y0127059D02*
X0259678Y0127059D01*
X0259737Y0127648D02*
X0262263Y0127648D01*
X0262203Y0128237D02*
X0259797Y0128237D01*
X0256844Y0124703D02*
X0253387Y0124703D01*
X0253976Y0125292D02*
X0256122Y0125292D01*
X0255400Y0125881D02*
X0254566Y0125881D01*
X0262513Y0121169D02*
X0267211Y0121169D01*
X0267415Y0120580D02*
X0263246Y0120580D01*
X0263679Y0119991D02*
X0267903Y0119991D01*
X0270769Y0119402D02*
X0263931Y0119402D01*
X0264049Y0118812D02*
X0270769Y0118812D01*
X0270769Y0118223D02*
X0264050Y0118223D01*
X0263936Y0117634D02*
X0270769Y0117634D01*
X0268257Y0117045D02*
X0263694Y0117045D01*
X0263286Y0116456D02*
X0267426Y0116456D01*
X0267229Y0115867D02*
X0262564Y0115867D01*
X0262335Y0115278D02*
X0266926Y0115278D01*
X0266922Y0114689D02*
X0262579Y0114689D01*
X0262823Y0114100D02*
X0267402Y0114100D01*
X0267883Y0113511D02*
X0263067Y0113511D01*
X0263311Y0112922D02*
X0268363Y0112922D01*
X0268649Y0112333D02*
X0265111Y0112333D01*
X0265834Y0111744D02*
X0268059Y0111744D01*
X0267470Y0111155D02*
X0266556Y0111155D01*
X0263754Y0112333D02*
X0263555Y0112333D01*
D17*
X0231200Y0141000D02*
X0231200Y0046200D01*
X0231000Y0046000D01*
X0221000Y0046000D02*
X0220300Y0046700D01*
X0220300Y0141000D01*
X0209500Y0141000D02*
X0209500Y0047500D01*
X0211000Y0046000D01*
X0198500Y0061000D02*
X0198600Y0073600D01*
X0198600Y0141000D01*
X0187700Y0141000D02*
X0186000Y0139300D01*
X0186000Y0061000D01*
X0186000Y0021000D02*
X0113500Y0021000D01*
X0101000Y0033500D01*
X0101000Y0095154D01*
X0096000Y0095154D02*
X0096000Y0111000D01*
X0101000Y0116000D01*
X0118500Y0116000D01*
X0123500Y0121000D01*
X0123500Y0140000D01*
X0122500Y0141000D01*
X0133400Y0141000D01*
X0136000Y0138400D01*
X0136000Y0106000D01*
X0146000Y0106000D02*
X0146000Y0139300D01*
X0144300Y0141000D01*
X0155100Y0141000D02*
X0156000Y0140100D01*
X0156000Y0106000D01*
X0166000Y0106000D02*
X0166000Y0141000D01*
X0176000Y0140100D02*
X0176900Y0141000D01*
X0176000Y0140100D02*
X0176000Y0106000D01*
X0116000Y0106000D02*
X0116000Y0043500D01*
X0126000Y0033500D01*
X0281000Y0033500D01*
X0291000Y0043500D01*
X0291000Y0051000D01*
X0291000Y0053500D01*
X0291000Y0161000D01*
X0271000Y0181000D01*
X0171000Y0181000D01*
X0160600Y0170600D01*
X0160600Y0151000D01*
X0171400Y0151000D01*
X0171000Y0151400D01*
X0171000Y0166000D01*
X0176000Y0171000D01*
X0266000Y0171000D01*
X0281000Y0156000D01*
X0281000Y0051000D01*
X0276000Y0046000D01*
X0261000Y0046000D01*
X0241000Y0046000D02*
X0241000Y0151000D01*
X0231000Y0161000D01*
X0186000Y0161000D01*
X0181000Y0156000D01*
X0181000Y0152300D01*
X0182300Y0151000D01*
X0149700Y0151000D02*
X0149700Y0177300D01*
X0121000Y0206000D01*
X0031000Y0206000D01*
X0006000Y0181000D01*
X0006000Y0096000D01*
X0031000Y0071000D01*
X0071000Y0071000D01*
X0071000Y0081000D02*
X0036000Y0081000D01*
X0016000Y0101000D01*
X0016000Y0176000D01*
X0036000Y0196000D01*
X0116000Y0196000D01*
X0138800Y0173200D01*
X0138800Y0151000D01*
X0128000Y0151000D02*
X0128000Y0169000D01*
X0111000Y0186000D01*
X0041000Y0186000D01*
X0026000Y0171000D01*
X0026000Y0111000D01*
X0046000Y0091000D01*
X0071000Y0091000D01*
X0071000Y0101000D02*
X0051000Y0101000D01*
X0036000Y0116000D01*
X0036000Y0166000D01*
X0046000Y0176000D01*
X0106000Y0176000D01*
X0116000Y0166000D01*
X0116000Y0152100D01*
X0117100Y0151000D01*
X0106200Y0151000D02*
X0106000Y0151200D01*
X0106000Y0161000D01*
X0101000Y0166000D01*
X0051000Y0166000D01*
X0046000Y0161000D01*
X0046000Y0121000D01*
X0056000Y0111000D01*
X0071000Y0111000D01*
X0071000Y0121000D02*
X0071000Y0126000D01*
X0076000Y0131000D01*
X0096000Y0131000D01*
X0101000Y0136000D01*
X0101000Y0140800D01*
X0100800Y0141000D01*
X0111000Y0140300D02*
X0111700Y0141000D01*
X0111000Y0140300D02*
X0111000Y0126000D01*
X0108500Y0123500D01*
X0096000Y0123500D01*
X0091000Y0118500D01*
X0091000Y0095154D01*
X0086000Y0095154D02*
X0086000Y0016000D01*
X0091000Y0011000D01*
X0191000Y0011000D01*
X0198500Y0018500D01*
X0198500Y0021000D01*
M02*
