%
M48
M72
T01C0.03200
T02C0.04000
T03C0.12598
T04C0.13000
%
T01
X186000Y21000
X198500Y21000
X198500Y61000
X186000Y61000
T02
X211000Y46000
X221000Y46000
X231000Y46000
X241000Y46000
X251000Y46000
X261000Y46000
X176000Y106000
X166000Y106000
X156000Y106000
X146000Y106000
X136000Y106000
X126000Y106000
X116000Y106000
X71000Y101000
X71000Y111000
X71000Y121000
X100800Y141000
X111700Y141000
X122500Y141000
X133400Y141000
X144300Y141000
X155100Y141000
X166000Y141000
X176900Y141000
X187700Y141000
X198600Y141000
X209500Y141000
X220300Y141000
X231200Y141000
X225800Y151000
X214900Y151000
X204000Y151000
X193200Y151000
X182300Y151000
X171400Y151000
X160600Y151000
X149700Y151000
X138800Y151000
X128000Y151000
X117100Y151000
X106200Y151000
X71000Y91000
X71000Y81000
X71000Y71000
T03
X11000Y11000
X11000Y201000
X291000Y201000
X291000Y11000
T04
X258600Y146000
X73400Y146000
M30
